<svg width="916" height="611" viewBox="0 0 916 611" fill="none" xmlns="http://www.w3.org/2000/svg">
<path d="M54.3401 233.84C50.5601 233.84 47.0367 233.233 43.7701 232.02C40.5501 230.76 37.7501 228.987 35.3701 226.7C32.9901 224.413 31.1234 221.73 29.7701 218.65C28.4634 215.57 27.8101 212.187 27.8101 208.5C27.8101 204.813 28.4634 201.43 29.7701 198.35C31.1234 195.27 32.9901 192.587 35.3701 190.3C37.7967 188.013 40.6201 186.263 43.8401 185.05C47.0601 183.79 50.5834 183.16 54.4101 183.16C58.6567 183.16 62.4834 183.907 65.8901 185.4C69.3434 186.847 72.2367 188.993 74.5701 191.84L67.2901 198.56C65.6101 196.647 63.7434 195.223 61.6901 194.29C59.6367 193.31 57.3967 192.82 54.9701 192.82C52.6834 192.82 50.5834 193.193 48.6701 193.94C46.7567 194.687 45.1001 195.76 43.7001 197.16C42.3001 198.56 41.2034 200.217 40.4101 202.13C39.6634 204.043 39.2901 206.167 39.2901 208.5C39.2901 210.833 39.6634 212.957 40.4101 214.87C41.2034 216.783 42.3001 218.44 43.7001 219.84C45.1001 221.24 46.7567 222.313 48.6701 223.06C50.5834 223.807 52.6834 224.18 54.9701 224.18C57.3967 224.18 59.6367 223.713 61.6901 222.78C63.7434 221.8 65.6101 220.33 67.2901 218.37L74.5701 225.09C72.2367 227.937 69.3434 230.107 65.8901 231.6C62.4834 233.093 58.6334 233.84 54.3401 233.84ZM95.5526 233V190.65L98.1426 193.24H79.9426V184H122.433V193.24H104.233L106.753 190.65V233H95.5526ZM125.062 233L146.902 184H158.102L180.012 233H168.112L150.192 189.74H154.672L136.682 233H125.062ZM135.982 222.5L138.992 213.89H164.192L167.272 222.5H135.982ZM223.61 184H234.95V233H223.61V184ZM201.35 233H190.01V184H201.35V233ZM224.45 212.91H200.51V203.32H224.45V212.91ZM274.457 200.1C280.383 200.1 284.957 201.43 288.177 204.09C291.397 206.703 293.007 210.647 293.007 215.92C293.007 221.52 291.21 225.767 287.617 228.66C284.07 231.553 279.147 233 272.847 233H250.727V184H261.997V200.1H274.457ZM272.217 224.6C275.11 224.6 277.397 223.877 279.077 222.43C280.757 220.983 281.597 218.883 281.597 216.13C281.597 213.423 280.757 211.487 279.077 210.32C277.443 209.107 275.157 208.5 272.217 208.5H261.997V224.6H272.217ZM322.47 233L344.31 184H355.51L377.42 233H365.52L347.6 189.74H352.08L334.09 233H322.47ZM333.39 222.5L336.4 213.89H361.6L364.68 222.5H333.39ZM419.128 233L403.868 209.41L413.038 203.88L432.008 233H419.128ZM387.278 233V184H398.548V233H387.278ZM395.258 213.26V203.81H412.338V213.26H395.258ZM414.088 209.76L403.658 208.5L419.548 184H431.518L414.088 209.76ZM450.844 233V190.65L453.434 193.24H435.234V184H477.724V193.24H459.524L462.044 190.65V233H450.844ZM488.344 233V184H499.614V215.92L522.994 184H533.634V233H522.434V201.15L499.054 233H488.344ZM549.334 233V184H572.154C577.847 184 582.281 185.097 585.454 187.29C588.627 189.483 590.214 192.61 590.214 196.67C590.214 200.683 588.721 203.81 585.734 206.05C582.747 208.243 578.781 209.34 573.834 209.34L575.164 206.4C580.671 206.4 584.941 207.497 587.974 209.69C591.007 211.883 592.524 215.057 592.524 219.21C592.524 223.503 590.891 226.887 587.624 229.36C584.404 231.787 579.691 233 573.484 233H549.334ZM560.604 224.6H573.064C575.677 224.6 577.661 224.087 579.014 223.06C580.367 222.033 581.044 220.447 581.044 218.3C581.044 216.247 580.367 214.73 579.014 213.75C577.661 212.723 575.677 212.21 573.064 212.21H560.604V224.6ZM560.604 204.3H571.174C573.647 204.3 575.514 203.81 576.774 202.83C578.034 201.803 578.664 200.31 578.664 198.35C578.664 196.39 578.034 194.92 576.774 193.94C575.514 192.913 573.647 192.4 571.174 192.4H560.604V204.3ZM604.992 233V184H616.262V215.92L639.642 184H650.282V233H639.082V201.15L615.702 233H604.992ZM689.153 233.84C685.373 233.84 681.849 233.233 678.583 232.02C675.363 230.76 672.563 228.987 670.183 226.7C667.803 224.413 665.936 221.73 664.583 218.65C663.276 215.57 662.623 212.187 662.623 208.5C662.623 204.813 663.276 201.43 664.583 198.35C665.936 195.27 667.803 192.587 670.183 190.3C672.609 188.013 675.433 186.263 678.653 185.05C681.873 183.79 685.396 183.16 689.223 183.16C693.469 183.16 697.296 183.907 700.703 185.4C704.156 186.847 707.049 188.993 709.383 191.84L702.103 198.56C700.423 196.647 698.556 195.223 696.503 194.29C694.449 193.31 692.209 192.82 689.783 192.82C687.496 192.82 685.396 193.193 683.483 193.94C681.569 194.687 679.913 195.76 678.513 197.16C677.113 198.56 676.016 200.217 675.223 202.13C674.476 204.043 674.103 206.167 674.103 208.5C674.103 210.833 674.476 212.957 675.223 214.87C676.016 216.783 677.113 218.44 678.513 219.84C679.913 221.24 681.569 222.313 683.483 223.06C685.396 223.807 687.496 224.18 689.783 224.18C692.209 224.18 694.449 223.713 696.503 222.78C698.556 221.8 700.423 220.33 702.103 218.37L709.383 225.09C707.049 227.937 704.156 230.107 700.703 231.6C697.296 233.093 693.446 233.84 689.153 233.84ZM730.365 233V190.65L732.955 193.24H714.755V184H757.245V193.24H739.045L741.565 190.65V233H730.365ZM790.632 233.84C786.758 233.84 783.165 233.21 779.852 231.95C776.585 230.69 773.738 228.917 771.312 226.63C768.932 224.343 767.065 221.66 765.712 218.58C764.405 215.5 763.752 212.14 763.752 208.5C763.752 204.86 764.405 201.5 765.712 198.42C767.065 195.34 768.955 192.657 771.382 190.37C773.808 188.083 776.655 186.31 779.922 185.05C783.188 183.79 786.735 183.16 790.562 183.16C794.435 183.16 797.982 183.79 801.202 185.05C804.468 186.31 807.292 188.083 809.672 190.37C812.098 192.657 813.988 195.34 815.342 198.42C816.695 201.453 817.372 204.813 817.372 208.5C817.372 212.14 816.695 215.523 815.342 218.65C813.988 221.73 812.098 224.413 809.672 226.7C807.292 228.94 804.468 230.69 801.202 231.95C797.982 233.21 794.458 233.84 790.632 233.84ZM790.562 224.18C792.755 224.18 794.762 223.807 796.582 223.06C798.448 222.313 800.082 221.24 801.482 219.84C802.882 218.44 803.955 216.783 804.702 214.87C805.495 212.957 805.892 210.833 805.892 208.5C805.892 206.167 805.495 204.043 804.702 202.13C803.955 200.217 802.882 198.56 801.482 197.16C800.128 195.76 798.518 194.687 796.652 193.94C794.785 193.193 792.755 192.82 790.562 192.82C788.368 192.82 786.338 193.193 784.472 193.94C782.652 194.687 781.042 195.76 779.642 197.16C778.242 198.56 777.145 200.217 776.352 202.13C775.605 204.043 775.232 206.167 775.232 208.5C775.232 210.787 775.605 212.91 776.352 214.87C777.145 216.783 778.218 218.44 779.572 219.84C780.972 221.24 782.605 222.313 784.472 223.06C786.338 223.807 788.368 224.18 790.562 224.18ZM829.608 233V184H838.988L859.848 218.58H854.878L875.388 184H884.768L884.838 233H874.198L874.128 200.31H876.158L859.708 227.82H854.668L837.868 200.31H840.248V233H829.608Z" fill="#FF5450"/>
<path d="M54.3401 318.84C50.5601 318.84 47.0367 318.233 43.7701 317.02C40.5501 315.76 37.7501 313.987 35.3701 311.7C32.9901 309.413 31.1234 306.73 29.7701 303.65C28.4634 300.57 27.8101 297.187 27.8101 293.5C27.8101 289.813 28.4634 286.43 29.7701 283.35C31.1234 280.27 32.9901 277.587 35.3701 275.3C37.7967 273.013 40.6201 271.263 43.8401 270.05C47.0601 268.79 50.5834 268.16 54.4101 268.16C58.6567 268.16 62.4834 268.907 65.8901 270.4C69.3434 271.847 72.2367 273.993 74.5701 276.84L67.2901 283.56C65.6101 281.647 63.7434 280.223 61.6901 279.29C59.6367 278.31 57.3967 277.82 54.9701 277.82C52.6834 277.82 50.5834 278.193 48.6701 278.94C46.7567 279.687 45.1001 280.76 43.7001 282.16C42.3001 283.56 41.2034 285.217 40.4101 287.13C39.6634 289.043 39.2901 291.167 39.2901 293.5C39.2901 295.833 39.6634 297.957 40.4101 299.87C41.2034 301.783 42.3001 303.44 43.7001 304.84C45.1001 306.24 46.7567 307.313 48.6701 308.06C50.5834 308.807 52.6834 309.18 54.9701 309.18C57.3967 309.18 59.6367 308.713 61.6901 307.78C63.7434 306.8 65.6101 305.33 67.2901 303.37L74.5701 310.09C72.2367 312.937 69.3434 315.107 65.8901 316.6C62.4834 318.093 58.6334 318.84 54.3401 318.84ZM95.5526 318V275.65L98.1426 278.24H79.9426V269H122.433V278.24H104.233L106.753 275.65V318H95.5526ZM125.062 318L146.902 269H158.102L180.012 318H168.112L150.192 274.74H154.672L136.682 318H125.062ZM135.982 307.5L138.992 298.89H164.192L167.272 307.5H135.982ZM223.61 269H234.95V318H223.61V269ZM201.35 318H190.01V269H201.35V318ZM224.45 297.91H200.51V288.32H224.45V297.91ZM274.457 285.1C280.383 285.1 284.957 286.43 288.177 289.09C291.397 291.703 293.007 295.647 293.007 300.92C293.007 306.52 291.21 310.767 287.617 313.66C284.07 316.553 279.147 318 272.847 318H250.727V269H261.997V285.1H274.457ZM272.217 309.6C275.11 309.6 277.397 308.877 279.077 307.43C280.757 305.983 281.597 303.883 281.597 301.13C281.597 298.423 280.757 296.487 279.077 295.32C277.443 294.107 275.157 293.5 272.217 293.5H261.997V309.6H272.217ZM322.47 318L344.31 269H355.51L377.42 318H365.52L347.6 274.74H352.08L334.09 318H322.47ZM333.39 307.5L336.4 298.89H361.6L364.68 307.5H333.39ZM419.128 318L403.868 294.41L413.038 288.88L432.008 318H419.128ZM387.278 318V269H398.548V318H387.278ZM395.258 298.26V288.81H412.338V298.26H395.258ZM414.088 294.76L403.658 293.5L419.548 269H431.518L414.088 294.76ZM450.844 318V275.65L453.434 278.24H435.234V269H477.724V278.24H459.524L462.044 275.65V318H450.844ZM488.344 318V269H499.614V300.92L522.994 269H533.634V318H522.434V286.15L499.054 318H488.344ZM549.334 318V269H572.154C577.847 269 582.281 270.097 585.454 272.29C588.627 274.483 590.214 277.61 590.214 281.67C590.214 285.683 588.721 288.81 585.734 291.05C582.747 293.243 578.781 294.34 573.834 294.34L575.164 291.4C580.671 291.4 584.941 292.497 587.974 294.69C591.007 296.883 592.524 300.057 592.524 304.21C592.524 308.503 590.891 311.887 587.624 314.36C584.404 316.787 579.691 318 573.484 318H549.334ZM560.604 309.6H573.064C575.677 309.6 577.661 309.087 579.014 308.06C580.367 307.033 581.044 305.447 581.044 303.3C581.044 301.247 580.367 299.73 579.014 298.75C577.661 297.723 575.677 297.21 573.064 297.21H560.604V309.6ZM560.604 289.3H571.174C573.647 289.3 575.514 288.81 576.774 287.83C578.034 286.803 578.664 285.31 578.664 283.35C578.664 281.39 578.034 279.92 576.774 278.94C575.514 277.913 573.647 277.4 571.174 277.4H560.604V289.3ZM604.992 318V269H616.262V300.92L639.642 269H650.282V318H639.082V286.15L615.702 318H604.992ZM689.153 318.84C685.373 318.84 681.849 318.233 678.583 317.02C675.363 315.76 672.563 313.987 670.183 311.7C667.803 309.413 665.936 306.73 664.583 303.65C663.276 300.57 662.623 297.187 662.623 293.5C662.623 289.813 663.276 286.43 664.583 283.35C665.936 280.27 667.803 277.587 670.183 275.3C672.609 273.013 675.433 271.263 678.653 270.05C681.873 268.79 685.396 268.16 689.223 268.16C693.469 268.16 697.296 268.907 700.703 270.4C704.156 271.847 707.049 273.993 709.383 276.84L702.103 283.56C700.423 281.647 698.556 280.223 696.503 279.29C694.449 278.31 692.209 277.82 689.783 277.82C687.496 277.82 685.396 278.193 683.483 278.94C681.569 279.687 679.913 280.76 678.513 282.16C677.113 283.56 676.016 285.217 675.223 287.13C674.476 289.043 674.103 291.167 674.103 293.5C674.103 295.833 674.476 297.957 675.223 299.87C676.016 301.783 677.113 303.44 678.513 304.84C679.913 306.24 681.569 307.313 683.483 308.06C685.396 308.807 687.496 309.18 689.783 309.18C692.209 309.18 694.449 308.713 696.503 307.78C698.556 306.8 700.423 305.33 702.103 303.37L709.383 310.09C707.049 312.937 704.156 315.107 700.703 316.6C697.296 318.093 693.446 318.84 689.153 318.84ZM730.365 318V275.65L732.955 278.24H714.755V269H757.245V278.24H739.045L741.565 275.65V318H730.365ZM790.632 318.84C786.758 318.84 783.165 318.21 779.852 316.95C776.585 315.69 773.738 313.917 771.312 311.63C768.932 309.343 767.065 306.66 765.712 303.58C764.405 300.5 763.752 297.14 763.752 293.5C763.752 289.86 764.405 286.5 765.712 283.42C767.065 280.34 768.955 277.657 771.382 275.37C773.808 273.083 776.655 271.31 779.922 270.05C783.188 268.79 786.735 268.16 790.562 268.16C794.435 268.16 797.982 268.79 801.202 270.05C804.468 271.31 807.292 273.083 809.672 275.37C812.098 277.657 813.988 280.34 815.342 283.42C816.695 286.453 817.372 289.813 817.372 293.5C817.372 297.14 816.695 300.523 815.342 303.65C813.988 306.73 812.098 309.413 809.672 311.7C807.292 313.94 804.468 315.69 801.202 316.95C797.982 318.21 794.458 318.84 790.632 318.84ZM790.562 309.18C792.755 309.18 794.762 308.807 796.582 308.06C798.448 307.313 800.082 306.24 801.482 304.84C802.882 303.44 803.955 301.783 804.702 299.87C805.495 297.957 805.892 295.833 805.892 293.5C805.892 291.167 805.495 289.043 804.702 287.13C803.955 285.217 802.882 283.56 801.482 282.16C800.128 280.76 798.518 279.687 796.652 278.94C794.785 278.193 792.755 277.82 790.562 277.82C788.368 277.82 786.338 278.193 784.472 278.94C782.652 279.687 781.042 280.76 779.642 282.16C778.242 283.56 777.145 285.217 776.352 287.13C775.605 289.043 775.232 291.167 775.232 293.5C775.232 295.787 775.605 297.91 776.352 299.87C777.145 301.783 778.218 303.44 779.572 304.84C780.972 306.24 782.605 307.313 784.472 308.06C786.338 308.807 788.368 309.18 790.562 309.18ZM829.608 318V269H838.988L859.848 303.58H854.878L875.388 269H884.768L884.838 318H874.198L874.128 285.31H876.158L859.708 312.82H854.668L837.868 285.31H840.248V318H829.608Z" fill="url(#paint0_linear_5_11810)"/>
<path d="M54.3401 151.84C50.5601 151.84 47.0367 151.233 43.7701 150.02C40.5501 148.76 37.7501 146.987 35.3701 144.7C32.9901 142.413 31.1234 139.73 29.7701 136.65C28.4634 133.57 27.8101 130.187 27.8101 126.5C27.8101 122.813 28.4634 119.43 29.7701 116.35C31.1234 113.27 32.9901 110.587 35.3701 108.3C37.7967 106.013 40.6201 104.263 43.8401 103.05C47.0601 101.79 50.5834 101.16 54.4101 101.16C58.6567 101.16 62.4834 101.907 65.8901 103.4C69.3434 104.847 72.2367 106.993 74.5701 109.84L67.2901 116.56C65.6101 114.647 63.7434 113.223 61.6901 112.29C59.6367 111.31 57.3967 110.82 54.9701 110.82C52.6834 110.82 50.5834 111.193 48.6701 111.94C46.7567 112.687 45.1001 113.76 43.7001 115.16C42.3001 116.56 41.2034 118.217 40.4101 120.13C39.6634 122.043 39.2901 124.167 39.2901 126.5C39.2901 128.833 39.6634 130.957 40.4101 132.87C41.2034 134.783 42.3001 136.44 43.7001 137.84C45.1001 139.24 46.7567 140.313 48.6701 141.06C50.5834 141.807 52.6834 142.18 54.9701 142.18C57.3967 142.18 59.6367 141.713 61.6901 140.78C63.7434 139.8 65.6101 138.33 67.2901 136.37L74.5701 143.09C72.2367 145.937 69.3434 148.107 65.8901 149.6C62.4834 151.093 58.6334 151.84 54.3401 151.84ZM95.5526 151V108.65L98.1426 111.24H79.9426V102H122.433V111.24H104.233L106.753 108.65V151H95.5526ZM125.062 151L146.902 102H158.102L180.012 151H168.112L150.192 107.74H154.672L136.682 151H125.062ZM135.982 140.5L138.992 131.89H164.192L167.272 140.5H135.982ZM223.61 102H234.95V151H223.61V102ZM201.35 151H190.01V102H201.35V151ZM224.45 130.91H200.51V121.32H224.45V130.91ZM274.457 118.1C280.383 118.1 284.957 119.43 288.177 122.09C291.397 124.703 293.007 128.647 293.007 133.92C293.007 139.52 291.21 143.767 287.617 146.66C284.07 149.553 279.147 151 272.847 151H250.727V102H261.997V118.1H274.457ZM272.217 142.6C275.11 142.6 277.397 141.877 279.077 140.43C280.757 138.983 281.597 136.883 281.597 134.13C281.597 131.423 280.757 129.487 279.077 128.32C277.443 127.107 275.157 126.5 272.217 126.5H261.997V142.6H272.217ZM322.47 151L344.31 102H355.51L377.42 151H365.52L347.6 107.74H352.08L334.09 151H322.47ZM333.39 140.5L336.4 131.89H361.6L364.68 140.5H333.39ZM419.128 151L403.868 127.41L413.038 121.88L432.008 151H419.128ZM387.278 151V102H398.548V151H387.278ZM395.258 131.26V121.81H412.338V131.26H395.258ZM414.088 127.76L403.658 126.5L419.548 102H431.518L414.088 127.76ZM450.844 151V108.65L453.434 111.24H435.234V102H477.724V111.24H459.524L462.044 108.65V151H450.844ZM488.344 151V102H499.614V133.92L522.994 102H533.634V151H522.434V119.15L499.054 151H488.344ZM549.334 151V102H572.154C577.847 102 582.281 103.097 585.454 105.29C588.627 107.483 590.214 110.61 590.214 114.67C590.214 118.683 588.721 121.81 585.734 124.05C582.747 126.243 578.781 127.34 573.834 127.34L575.164 124.4C580.671 124.4 584.941 125.497 587.974 127.69C591.007 129.883 592.524 133.057 592.524 137.21C592.524 141.503 590.891 144.887 587.624 147.36C584.404 149.787 579.691 151 573.484 151H549.334ZM560.604 142.6H573.064C575.677 142.6 577.661 142.087 579.014 141.06C580.367 140.033 581.044 138.447 581.044 136.3C581.044 134.247 580.367 132.73 579.014 131.75C577.661 130.723 575.677 130.21 573.064 130.21H560.604V142.6ZM560.604 122.3H571.174C573.647 122.3 575.514 121.81 576.774 120.83C578.034 119.803 578.664 118.31 578.664 116.35C578.664 114.39 578.034 112.92 576.774 111.94C575.514 110.913 573.647 110.4 571.174 110.4H560.604V122.3ZM604.992 151V102H616.262V133.92L639.642 102H650.282V151H639.082V119.15L615.702 151H604.992ZM689.153 151.84C685.373 151.84 681.849 151.233 678.583 150.02C675.363 148.76 672.563 146.987 670.183 144.7C667.803 142.413 665.936 139.73 664.583 136.65C663.276 133.57 662.623 130.187 662.623 126.5C662.623 122.813 663.276 119.43 664.583 116.35C665.936 113.27 667.803 110.587 670.183 108.3C672.609 106.013 675.433 104.263 678.653 103.05C681.873 101.79 685.396 101.16 689.223 101.16C693.469 101.16 697.296 101.907 700.703 103.4C704.156 104.847 707.049 106.993 709.383 109.84L702.103 116.56C700.423 114.647 698.556 113.223 696.503 112.29C694.449 111.31 692.209 110.82 689.783 110.82C687.496 110.82 685.396 111.193 683.483 111.94C681.569 112.687 679.913 113.76 678.513 115.16C677.113 116.56 676.016 118.217 675.223 120.13C674.476 122.043 674.103 124.167 674.103 126.5C674.103 128.833 674.476 130.957 675.223 132.87C676.016 134.783 677.113 136.44 678.513 137.84C679.913 139.24 681.569 140.313 683.483 141.06C685.396 141.807 687.496 142.18 689.783 142.18C692.209 142.18 694.449 141.713 696.503 140.78C698.556 139.8 700.423 138.33 702.103 136.37L709.383 143.09C707.049 145.937 704.156 148.107 700.703 149.6C697.296 151.093 693.446 151.84 689.153 151.84ZM730.365 151V108.65L732.955 111.24H714.755V102H757.245V111.24H739.045L741.565 108.65V151H730.365ZM790.632 151.84C786.758 151.84 783.165 151.21 779.852 149.95C776.585 148.69 773.738 146.917 771.312 144.63C768.932 142.343 767.065 139.66 765.712 136.58C764.405 133.5 763.752 130.14 763.752 126.5C763.752 122.86 764.405 119.5 765.712 116.42C767.065 113.34 768.955 110.657 771.382 108.37C773.808 106.083 776.655 104.31 779.922 103.05C783.188 101.79 786.735 101.16 790.562 101.16C794.435 101.16 797.982 101.79 801.202 103.05C804.468 104.31 807.292 106.083 809.672 108.37C812.098 110.657 813.988 113.34 815.342 116.42C816.695 119.453 817.372 122.813 817.372 126.5C817.372 130.14 816.695 133.523 815.342 136.65C813.988 139.73 812.098 142.413 809.672 144.7C807.292 146.94 804.468 148.69 801.202 149.95C797.982 151.21 794.458 151.84 790.632 151.84ZM790.562 142.18C792.755 142.18 794.762 141.807 796.582 141.06C798.448 140.313 800.082 139.24 801.482 137.84C802.882 136.44 803.955 134.783 804.702 132.87C805.495 130.957 805.892 128.833 805.892 126.5C805.892 124.167 805.495 122.043 804.702 120.13C803.955 118.217 802.882 116.56 801.482 115.16C800.128 113.76 798.518 112.687 796.652 111.94C794.785 111.193 792.755 110.82 790.562 110.82C788.368 110.82 786.338 111.193 784.472 111.94C782.652 112.687 781.042 113.76 779.642 115.16C778.242 116.56 777.145 118.217 776.352 120.13C775.605 122.043 775.232 124.167 775.232 126.5C775.232 128.787 775.605 130.91 776.352 132.87C777.145 134.783 778.218 136.44 779.572 137.84C780.972 139.24 782.605 140.313 784.472 141.06C786.338 141.807 788.368 142.18 790.562 142.18ZM829.608 151V102H838.988L859.848 136.58H854.878L875.388 102H884.768L884.838 151H874.198L874.128 118.31H876.158L859.708 145.82H854.668L837.868 118.31H840.248V151H829.608Z" fill="url(#paint1_linear_5_11810)"/>
<path d="M54.3401 67.84C50.5601 67.84 47.0367 67.2333 43.7701 66.02C40.5501 64.76 37.7501 62.9867 35.3701 60.7C32.9901 58.4133 31.1234 55.73 29.7701 52.65C28.4634 49.57 27.8101 46.1867 27.8101 42.5C27.8101 38.8133 28.4634 35.43 29.7701 32.35C31.1234 29.27 32.9901 26.5867 35.3701 24.3C37.7967 22.0133 40.6201 20.2633 43.8401 19.05C47.0601 17.79 50.5834 17.16 54.4101 17.16C58.6567 17.16 62.4834 17.9067 65.8901 19.4C69.3434 20.8467 72.2367 22.9933 74.5701 25.84L67.2901 32.56C65.6101 30.6467 63.7434 29.2233 61.6901 28.29C59.6367 27.31 57.3967 26.82 54.9701 26.82C52.6834 26.82 50.5834 27.1933 48.6701 27.94C46.7567 28.6867 45.1001 29.76 43.7001 31.16C42.3001 32.56 41.2034 34.2167 40.4101 36.13C39.6634 38.0433 39.2901 40.1667 39.2901 42.5C39.2901 44.8333 39.6634 46.9567 40.4101 48.87C41.2034 50.7833 42.3001 52.44 43.7001 53.84C45.1001 55.24 46.7567 56.3133 48.6701 57.06C50.5834 57.8067 52.6834 58.18 54.9701 58.18C57.3967 58.18 59.6367 57.7133 61.6901 56.78C63.7434 55.8 65.6101 54.33 67.2901 52.37L74.5701 59.09C72.2367 61.9367 69.3434 64.1067 65.8901 65.6C62.4834 67.0933 58.6334 67.84 54.3401 67.84ZM95.5526 67V24.65L98.1426 27.24H79.9426V18H122.433V27.24H104.233L106.753 24.65V67H95.5526ZM125.062 67L146.902 18H158.102L180.012 67H168.112L150.192 23.74H154.672L136.682 67H125.062ZM135.982 56.5L138.992 47.89H164.192L167.272 56.5H135.982ZM223.61 18H234.95V67H223.61V18ZM201.35 67H190.01V18H201.35V67ZM224.45 46.91H200.51V37.32H224.45V46.91ZM274.457 34.1C280.383 34.1 284.957 35.43 288.177 38.09C291.397 40.7033 293.007 44.6467 293.007 49.92C293.007 55.52 291.21 59.7667 287.617 62.66C284.07 65.5533 279.147 67 272.847 67H250.727V18H261.997V34.1H274.457ZM272.217 58.6C275.11 58.6 277.397 57.8767 279.077 56.43C280.757 54.9833 281.597 52.8833 281.597 50.13C281.597 47.4233 280.757 45.4867 279.077 44.32C277.443 43.1067 275.157 42.5 272.217 42.5H261.997V58.6H272.217ZM322.47 67L344.31 18H355.51L377.42 67H365.52L347.6 23.74H352.08L334.09 67H322.47ZM333.39 56.5L336.4 47.89H361.6L364.68 56.5H333.39ZM419.128 67L403.868 43.41L413.038 37.88L432.008 67H419.128ZM387.278 67V18H398.548V67H387.278ZM395.258 47.26V37.81H412.338V47.26H395.258ZM414.088 43.76L403.658 42.5L419.548 18H431.518L414.088 43.76ZM450.844 67V24.65L453.434 27.24H435.234V18H477.724V27.24H459.524L462.044 24.65V67H450.844ZM488.344 67V18H499.614V49.92L522.994 18H533.634V67H522.434V35.15L499.054 67H488.344ZM549.334 67V18H572.154C577.847 18 582.281 19.0967 585.454 21.29C588.627 23.4833 590.214 26.61 590.214 30.67C590.214 34.6833 588.721 37.81 585.734 40.05C582.747 42.2433 578.781 43.34 573.834 43.34L575.164 40.4C580.671 40.4 584.941 41.4967 587.974 43.69C591.007 45.8833 592.524 49.0567 592.524 53.21C592.524 57.5033 590.891 60.8867 587.624 63.36C584.404 65.7867 579.691 67 573.484 67H549.334ZM560.604 58.6H573.064C575.677 58.6 577.661 58.0867 579.014 57.06C580.367 56.0333 581.044 54.4467 581.044 52.3C581.044 50.2467 580.367 48.73 579.014 47.75C577.661 46.7233 575.677 46.21 573.064 46.21H560.604V58.6ZM560.604 38.3H571.174C573.647 38.3 575.514 37.81 576.774 36.83C578.034 35.8033 578.664 34.31 578.664 32.35C578.664 30.39 578.034 28.92 576.774 27.94C575.514 26.9133 573.647 26.4 571.174 26.4H560.604V38.3ZM604.992 67V18H616.262V49.92L639.642 18H650.282V67H639.082V35.15L615.702 67H604.992ZM689.153 67.84C685.373 67.84 681.849 67.2333 678.583 66.02C675.363 64.76 672.563 62.9867 670.183 60.7C667.803 58.4133 665.936 55.73 664.583 52.65C663.276 49.57 662.623 46.1867 662.623 42.5C662.623 38.8133 663.276 35.43 664.583 32.35C665.936 29.27 667.803 26.5867 670.183 24.3C672.609 22.0133 675.433 20.2633 678.653 19.05C681.873 17.79 685.396 17.16 689.223 17.16C693.469 17.16 697.296 17.9067 700.703 19.4C704.156 20.8467 707.049 22.9933 709.383 25.84L702.103 32.56C700.423 30.6467 698.556 29.2233 696.503 28.29C694.449 27.31 692.209 26.82 689.783 26.82C687.496 26.82 685.396 27.1933 683.483 27.94C681.569 28.6867 679.913 29.76 678.513 31.16C677.113 32.56 676.016 34.2167 675.223 36.13C674.476 38.0433 674.103 40.1667 674.103 42.5C674.103 44.8333 674.476 46.9567 675.223 48.87C676.016 50.7833 677.113 52.44 678.513 53.84C679.913 55.24 681.569 56.3133 683.483 57.06C685.396 57.8067 687.496 58.18 689.783 58.18C692.209 58.18 694.449 57.7133 696.503 56.78C698.556 55.8 700.423 54.33 702.103 52.37L709.383 59.09C707.049 61.9367 704.156 64.1067 700.703 65.6C697.296 67.0933 693.446 67.84 689.153 67.84ZM730.365 67V24.65L732.955 27.24H714.755V18H757.245V27.24H739.045L741.565 24.65V67H730.365ZM790.632 67.84C786.758 67.84 783.165 67.21 779.852 65.95C776.585 64.69 773.738 62.9167 771.312 60.63C768.932 58.3433 767.065 55.66 765.712 52.58C764.405 49.5 763.752 46.14 763.752 42.5C763.752 38.86 764.405 35.5 765.712 32.42C767.065 29.34 768.955 26.6567 771.382 24.37C773.808 22.0833 776.655 20.31 779.922 19.05C783.188 17.79 786.735 17.16 790.562 17.16C794.435 17.16 797.982 17.79 801.202 19.05C804.468 20.31 807.292 22.0833 809.672 24.37C812.098 26.6567 813.988 29.34 815.342 32.42C816.695 35.4533 817.372 38.8133 817.372 42.5C817.372 46.14 816.695 49.5233 815.342 52.65C813.988 55.73 812.098 58.4133 809.672 60.7C807.292 62.94 804.468 64.69 801.202 65.95C797.982 67.21 794.458 67.84 790.632 67.84ZM790.562 58.18C792.755 58.18 794.762 57.8067 796.582 57.06C798.448 56.3133 800.082 55.24 801.482 53.84C802.882 52.44 803.955 50.7833 804.702 48.87C805.495 46.9567 805.892 44.8333 805.892 42.5C805.892 40.1667 805.495 38.0433 804.702 36.13C803.955 34.2167 802.882 32.56 801.482 31.16C800.128 29.76 798.518 28.6867 796.652 27.94C794.785 27.1933 792.755 26.82 790.562 26.82C788.368 26.82 786.338 27.1933 784.472 27.94C782.652 28.6867 781.042 29.76 779.642 31.16C778.242 32.56 777.145 34.2167 776.352 36.13C775.605 38.0433 775.232 40.1667 775.232 42.5C775.232 44.7867 775.605 46.91 776.352 48.87C777.145 50.7833 778.218 52.44 779.572 53.84C780.972 55.24 782.605 56.3133 784.472 57.06C786.338 57.8067 788.368 58.18 790.562 58.18ZM829.608 67V18H838.988L859.848 52.58H854.878L875.388 18H884.768L884.838 67H874.198L874.128 34.31H876.158L859.708 61.82H854.668L837.868 34.31H840.248V67H829.608Z" fill="url(#paint2_linear_5_11810)"/>
<path d="M48.0735 407.852C44.2395 407.852 40.6658 407.237 37.3525 406.006C34.0865 404.728 31.2465 402.929 28.8325 400.61C26.4185 398.291 24.5252 395.569 23.1525 392.445C21.8272 389.321 21.1645 385.889 21.1645 382.15C21.1645 378.411 21.8272 374.979 23.1525 371.855C24.5252 368.731 26.4185 366.009 28.8325 363.69C31.2938 361.371 34.1575 359.596 37.4235 358.365C40.6895 357.087 44.2632 356.448 48.1445 356.448C52.4518 356.448 56.3332 357.205 59.7885 358.72C63.2912 360.187 66.2258 362.365 68.5925 365.252L61.2085 372.068C59.5045 370.127 57.6112 368.684 55.5285 367.737C53.4458 366.743 51.1738 366.246 48.7125 366.246C46.3932 366.246 44.2632 366.625 42.3225 367.382C40.3818 368.139 38.7015 369.228 37.2815 370.648C35.8615 372.068 34.7492 373.748 33.9445 375.689C33.1872 377.63 32.8085 379.783 32.8085 382.15C32.8085 384.517 33.1872 386.67 33.9445 388.611C34.7492 390.552 35.8615 392.232 37.2815 393.652C38.7015 395.072 40.3818 396.161 42.3225 396.918C44.2632 397.675 46.3932 398.054 48.7125 398.054C51.1738 398.054 53.4458 397.581 55.5285 396.634C57.6112 395.64 59.5045 394.149 61.2085 392.161L68.5925 398.977C66.2258 401.864 63.2912 404.065 59.7885 405.58C56.3332 407.095 52.4282 407.852 48.0735 407.852ZM89.8748 407V364.045L92.5018 366.672H74.0418V357.3H117.139V366.672H98.6788L101.235 364.045V407H89.8748ZM119.806 407L141.958 357.3H153.318L175.541 407H163.471L145.295 363.122H149.839L131.592 407H119.806ZM130.882 396.35L133.935 387.617H159.495L162.619 396.35H130.882ZM219.761 357.3H231.263V407H219.761V357.3ZM197.183 407H185.681V357.3H197.183V407ZM220.613 386.623H196.331V376.896H220.613V386.623ZM271.335 373.63C277.346 373.63 281.985 374.979 285.251 377.677C288.517 380.328 290.15 384.327 290.15 389.676C290.15 395.356 288.327 399.663 284.683 402.598C281.085 405.533 276.092 407 269.702 407H247.266V357.3H258.697V373.63H271.335ZM269.063 398.48C271.997 398.48 274.317 397.746 276.021 396.279C277.725 394.812 278.577 392.682 278.577 389.889C278.577 387.144 277.725 385.179 276.021 383.996C274.364 382.765 272.045 382.15 269.063 382.15H258.697V398.48H269.063ZM320.034 407L342.186 357.3H353.546L375.769 407H363.699L345.523 363.122H350.067L331.82 407H320.034ZM331.11 396.35L334.163 387.617H359.723L362.847 396.35H331.11ZM418.073 407L402.595 383.073L411.896 377.464L431.137 407H418.073ZM385.768 407V357.3H397.199V407H385.768ZM393.862 386.978V377.393H411.186V386.978H393.862ZM412.961 383.428L402.382 382.15L418.499 357.3H430.64L412.961 383.428ZM450.241 407V364.045L452.868 366.672H434.408V357.3H477.505V366.672H459.045L461.601 364.045V407H450.241ZM488.277 407V357.3H499.708V389.676L523.422 357.3H534.214V407H522.854V374.695L499.14 407H488.277ZM550.139 407V357.3H573.285C579.06 357.3 583.556 358.412 586.775 360.637C589.994 362.862 591.603 366.033 591.603 370.151C591.603 374.222 590.088 377.393 587.059 379.665C584.03 381.89 580.006 383.002 574.989 383.002L576.338 380.02C581.923 380.02 586.254 381.132 589.331 383.357C592.408 385.582 593.946 388.8 593.946 393.013C593.946 397.368 592.289 400.799 588.976 403.308C585.71 405.769 580.929 407 574.634 407H550.139ZM561.57 398.48H574.208C576.859 398.48 578.87 397.959 580.243 396.918C581.616 395.877 582.302 394.267 582.302 392.09C582.302 390.007 581.616 388.469 580.243 387.475C578.87 386.434 576.859 385.913 574.208 385.913H561.57V398.48ZM561.57 377.89H572.291C574.8 377.89 576.693 377.393 577.971 376.399C579.249 375.358 579.888 373.843 579.888 371.855C579.888 369.867 579.249 368.376 577.971 367.382C576.693 366.341 574.8 365.82 572.291 365.82H561.57V377.89ZM606.592 407V357.3H618.023V389.676L641.737 357.3H652.529V407H641.169V374.695L617.455 407H606.592ZM691.955 407.852C688.121 407.852 684.547 407.237 681.234 406.006C677.968 404.728 675.128 402.929 672.714 400.61C670.3 398.291 668.406 395.569 667.034 392.445C665.708 389.321 665.046 385.889 665.046 382.15C665.046 378.411 665.708 374.979 667.034 371.855C668.406 368.731 670.3 366.009 672.714 363.69C675.175 361.371 678.039 359.596 681.305 358.365C684.571 357.087 688.144 356.448 692.026 356.448C696.333 356.448 700.214 357.205 703.67 358.72C707.172 360.187 710.107 362.365 712.474 365.252L705.09 372.068C703.386 370.127 701.492 368.684 699.41 367.737C697.327 366.743 695.055 366.246 692.594 366.246C690.274 366.246 688.144 366.625 686.204 367.382C684.263 368.139 682.583 369.228 681.163 370.648C679.743 372.068 678.63 373.748 677.826 375.689C677.068 377.63 676.69 379.783 676.69 382.15C676.69 384.517 677.068 386.67 677.826 388.611C678.63 390.552 679.743 392.232 681.163 393.652C682.583 395.072 684.263 396.161 686.204 396.918C688.144 397.675 690.274 398.054 692.594 398.054C695.055 398.054 697.327 397.581 699.41 396.634C701.492 395.64 703.386 394.149 705.09 392.161L712.474 398.977C710.107 401.864 707.172 404.065 703.67 405.58C700.214 407.095 696.309 407.852 691.955 407.852ZM733.756 407V364.045L736.383 366.672H717.923V357.3H761.02V366.672H742.56L745.116 364.045V407H733.756ZM794.884 407.852C790.955 407.852 787.31 407.213 783.95 405.935C780.636 404.657 777.749 402.858 775.288 400.539C772.874 398.22 770.98 395.498 769.608 392.374C768.282 389.25 767.62 385.842 767.62 382.15C767.62 378.458 768.282 375.05 769.608 371.926C770.98 368.802 772.897 366.08 775.359 363.761C777.82 361.442 780.707 359.643 784.021 358.365C787.334 357.087 790.931 356.448 794.813 356.448C798.741 356.448 802.339 357.087 805.605 358.365C808.918 359.643 811.782 361.442 814.196 363.761C816.657 366.08 818.574 368.802 819.947 371.926C821.319 375.003 822.006 378.411 822.006 382.15C822.006 385.842 821.319 389.274 819.947 392.445C818.574 395.569 816.657 398.291 814.196 400.61C811.782 402.882 808.918 404.657 805.605 405.935C802.339 407.213 798.765 407.852 794.884 407.852ZM794.813 398.054C797.037 398.054 799.073 397.675 800.919 396.918C802.812 396.161 804.469 395.072 805.889 393.652C807.309 392.232 808.397 390.552 809.155 388.611C809.959 386.67 810.362 384.517 810.362 382.15C810.362 379.783 809.959 377.63 809.155 375.689C808.397 373.748 807.309 372.068 805.889 370.648C804.516 369.228 802.883 368.139 800.99 367.382C799.096 366.625 797.037 366.246 794.813 366.246C792.588 366.246 790.529 366.625 788.636 367.382C786.79 368.139 785.157 369.228 783.737 370.648C782.317 372.068 781.204 373.748 780.4 375.689C779.642 377.63 779.264 379.783 779.264 382.15C779.264 384.469 779.642 386.623 780.4 388.611C781.204 390.552 782.293 392.232 783.666 393.652C785.086 395.072 786.742 396.161 788.636 396.918C790.529 397.675 792.588 398.054 794.813 398.054ZM834.416 407V357.3H843.93L865.088 392.374H860.047L880.85 357.3H890.364L890.435 407H879.643L879.572 373.843H881.631L864.946 401.746H859.834L842.794 373.843H845.208V407H834.416Z" fill="url(#paint3_linear_5_11810)"/>
<path d="M33.5404 498.876C29.5984 498.876 25.924 498.243 22.5174 496.978C19.1594 495.664 16.2394 493.815 13.7574 491.43C11.2754 489.045 9.3287 486.247 7.91737 483.035C6.5547 479.823 5.87337 476.295 5.87337 472.45C5.87337 468.605 6.5547 465.077 7.91737 461.865C9.3287 458.653 11.2754 455.855 13.7574 453.47C16.288 451.085 19.2324 449.26 22.5904 447.995C25.9484 446.681 29.6227 446.024 33.6134 446.024C38.042 446.024 42.0327 446.803 45.5854 448.36C49.1867 449.869 52.204 452.107 54.6374 455.076L47.0454 462.084C45.2934 460.089 43.3467 458.604 41.2054 457.631C39.064 456.609 36.728 456.098 34.1974 456.098C31.8127 456.098 29.6227 456.487 27.6274 457.266C25.632 458.045 23.9044 459.164 22.4444 460.624C20.9844 462.084 19.8407 463.812 19.0134 465.807C18.2347 467.802 17.8454 470.017 17.8454 472.45C17.8454 474.883 18.2347 477.098 19.0134 479.093C19.8407 481.088 20.9844 482.816 22.4444 484.276C23.9044 485.736 25.632 486.855 27.6274 487.634C29.6227 488.413 31.8127 488.802 34.1974 488.802C36.728 488.802 39.064 488.315 41.2054 487.342C43.3467 486.32 45.2934 484.787 47.0454 482.743L54.6374 489.751C52.204 492.72 49.1867 494.983 45.5854 496.54C42.0327 498.097 38.0177 498.876 33.5404 498.876ZM76.5191 498V453.835L79.2201 456.536H60.2401V446.9H104.551V456.536H85.5711L88.1991 453.835V498H76.5191ZM107.293 498L130.069 446.9H141.749L164.598 498H152.188L133.5 452.886H138.172L119.411 498H107.293ZM118.681 487.05L121.82 478.071H148.1L151.312 487.05H118.681ZM210.065 446.9H221.891V498H210.065V446.9ZM186.851 498H175.025V446.9H186.851V498ZM210.941 477.049H185.975V467.048H210.941V477.049ZM263.091 463.69C269.271 463.69 274.041 465.077 277.399 467.851C280.757 470.576 282.436 474.689 282.436 480.188C282.436 486.028 280.562 490.457 276.815 493.474C273.116 496.491 267.982 498 261.412 498H238.344V446.9H250.097V463.69H263.091ZM260.755 489.24C263.772 489.24 266.157 488.486 267.909 486.977C269.661 485.468 270.537 483.278 270.537 480.407C270.537 477.584 269.661 475.565 267.909 474.348C266.205 473.083 263.821 472.45 260.755 472.45H250.097V489.24H260.755ZM313.162 498L335.938 446.9H347.618L370.467 498H358.057L339.369 452.886H344.041L325.28 498H313.162ZM324.55 487.05L327.689 478.071H353.969L357.181 487.05H324.55ZM413.962 498L398.048 473.399L407.611 467.632L427.394 498H413.962ZM380.747 498V446.9H392.5V498H380.747ZM389.069 477.414V467.559H406.881V477.414H389.069ZM408.706 473.764L397.829 472.45L414.4 446.9H426.883L408.706 473.764ZM447.037 498V453.835L449.738 456.536H430.758V446.9H475.069V456.536H456.089L458.717 453.835V498H447.037ZM486.144 498V446.9H497.897V480.188L522.279 446.9H533.375V498H521.695V464.785L497.313 498H486.144ZM549.748 498V446.9H573.546C579.484 446.9 584.107 448.044 587.416 450.331C590.726 452.618 592.38 455.879 592.38 460.113C592.38 464.298 590.823 467.559 587.708 469.895C584.594 472.182 580.457 473.326 575.298 473.326L576.685 470.26C582.428 470.26 586.881 471.404 590.044 473.691C593.208 475.978 594.789 479.288 594.789 483.619C594.789 488.096 593.086 491.625 589.679 494.204C586.321 496.735 581.406 498 574.933 498H549.748ZM561.501 489.24H574.495C577.221 489.24 579.289 488.705 580.7 487.634C582.112 486.563 582.817 484.909 582.817 482.67C582.817 480.529 582.112 478.947 580.7 477.925C579.289 476.854 577.221 476.319 574.495 476.319H561.501V489.24ZM561.501 468.07H572.524C575.104 468.07 577.05 467.559 578.364 466.537C579.678 465.466 580.335 463.909 580.335 461.865C580.335 459.821 579.678 458.288 578.364 457.266C577.05 456.195 575.104 455.66 572.524 455.66H561.501V468.07ZM607.792 498V446.9H619.545V480.188L643.927 446.9H655.023V498H643.343V464.785L618.961 498H607.792ZM695.559 498.876C691.617 498.876 687.943 498.243 684.536 496.978C681.178 495.664 678.258 493.815 675.776 491.43C673.294 489.045 671.347 486.247 669.936 483.035C668.573 479.823 667.892 476.295 667.892 472.45C667.892 468.605 668.573 465.077 669.936 461.865C671.347 458.653 673.294 455.855 675.776 453.47C678.307 451.085 681.251 449.26 684.609 447.995C687.967 446.681 691.641 446.024 695.632 446.024C700.061 446.024 704.051 446.803 707.604 448.36C711.205 449.869 714.223 452.107 716.656 455.076L709.064 462.084C707.312 460.089 705.365 458.604 703.224 457.631C701.083 456.609 698.747 456.098 696.216 456.098C693.831 456.098 691.641 456.487 689.646 457.266C687.651 458.045 685.923 459.164 684.463 460.624C683.003 462.084 681.859 463.812 681.032 465.807C680.253 467.802 679.864 470.017 679.864 472.45C679.864 474.883 680.253 477.098 681.032 479.093C681.859 481.088 683.003 482.816 684.463 484.276C685.923 485.736 687.651 486.855 689.646 487.634C691.641 488.413 693.831 488.802 696.216 488.802C698.747 488.802 701.083 488.315 703.224 487.342C705.365 486.32 707.312 484.787 709.064 482.743L716.656 489.751C714.223 492.72 711.205 494.983 707.604 496.54C704.051 498.097 700.036 498.876 695.559 498.876ZM738.538 498V453.835L741.239 456.536H722.259V446.9H766.57V456.536H747.59L750.218 453.835V498H738.538ZM801.387 498.876C797.348 498.876 793.601 498.219 790.145 496.905C786.739 495.591 783.77 493.742 781.239 491.357C778.757 488.972 776.811 486.174 775.399 482.962C774.037 479.75 773.355 476.246 773.355 472.45C773.355 468.654 774.037 465.15 775.399 461.938C776.811 458.726 778.782 455.928 781.312 453.543C783.843 451.158 786.812 449.309 790.218 447.995C793.625 446.681 797.324 446.024 801.314 446.024C805.354 446.024 809.052 446.681 812.41 447.995C815.817 449.309 818.761 451.158 821.243 453.543C823.774 455.928 825.745 458.726 827.156 461.938C828.568 465.101 829.273 468.605 829.273 472.45C829.273 476.246 828.568 479.774 827.156 483.035C825.745 486.247 823.774 489.045 821.243 491.43C818.761 493.766 815.817 495.591 812.41 496.905C809.052 498.219 805.378 498.876 801.387 498.876ZM801.314 488.802C803.602 488.802 805.694 488.413 807.592 487.634C809.539 486.855 811.242 485.736 812.702 484.276C814.162 482.816 815.282 481.088 816.06 479.093C816.888 477.098 817.301 474.883 817.301 472.45C817.301 470.017 816.888 467.802 816.06 465.807C815.282 463.812 814.162 462.084 812.702 460.624C811.291 459.164 809.612 458.045 807.665 457.266C805.719 456.487 803.602 456.098 801.314 456.098C799.027 456.098 796.91 456.487 794.963 457.266C793.065 458.045 791.386 459.164 789.926 460.624C788.466 462.084 787.323 463.812 786.495 465.807C785.717 467.802 785.327 470.017 785.327 472.45C785.327 474.835 785.717 477.049 786.495 479.093C787.323 481.088 788.442 482.816 789.853 484.276C791.313 485.736 793.017 486.855 794.963 487.634C796.91 488.413 799.027 488.802 801.314 488.802ZM842.034 498V446.9H851.816L873.57 482.962H868.387L889.776 446.9H899.558L899.631 498H888.535L888.462 463.909H890.579L873.424 492.598H868.168L850.648 463.909H853.13V498H842.034Z" fill="url(#paint4_linear_5_11810)"/>
<path d="M31.2738 593.888C27.2778 593.888 23.5531 593.247 20.0998 591.964C16.6958 590.632 13.7358 588.757 11.2198 586.34C8.7038 583.923 6.73046 581.086 5.2998 577.83C3.91846 574.574 3.2278 570.997 3.2278 567.1C3.2278 563.203 3.91846 559.626 5.2998 556.37C6.73046 553.114 8.7038 550.277 11.2198 547.86C13.7851 545.443 16.7698 543.593 20.1738 542.31C23.5778 540.978 27.3025 540.312 31.3478 540.312C35.8371 540.312 39.8825 541.101 43.4838 542.68C47.1345 544.209 50.1931 546.479 52.6598 549.488L44.9638 556.592C43.1878 554.569 41.2145 553.065 39.0438 552.078C36.8731 551.042 34.5051 550.524 31.9398 550.524C29.5225 550.524 27.3025 550.919 25.2798 551.708C23.2571 552.497 21.5058 553.632 20.0258 555.112C18.5458 556.592 17.3865 558.343 16.5478 560.366C15.7585 562.389 15.3638 564.633 15.3638 567.1C15.3638 569.567 15.7585 571.811 16.5478 573.834C17.3865 575.857 18.5458 577.608 20.0258 579.088C21.5058 580.568 23.2571 581.703 25.2798 582.492C27.3025 583.281 29.5225 583.676 31.9398 583.676C34.5051 583.676 36.8731 583.183 39.0438 582.196C41.2145 581.16 43.1878 579.606 44.9638 577.534L52.6598 584.638C50.1931 587.647 47.1345 589.941 43.4838 591.52C39.8825 593.099 35.8125 593.888 31.2738 593.888ZM74.8413 593V548.23L77.5793 550.968H58.3393V541.2H103.257V550.968H84.0173L86.6813 548.23V593H74.8413ZM106.037 593L129.125 541.2H140.965L164.127 593H151.547L132.603 547.268H137.339L118.321 593H106.037ZM117.581 581.9L120.763 572.798H147.403L150.659 581.9H117.581ZM210.216 541.2H222.204V593H210.216V541.2ZM186.684 593H174.696V541.2H186.684V593ZM211.104 571.762H185.796V561.624H211.104V571.762ZM263.969 558.22C270.234 558.22 275.069 559.626 278.473 562.438C281.877 565.201 283.579 569.369 283.579 574.944C283.579 580.864 281.679 585.353 277.881 588.412C274.131 591.471 268.927 593 262.267 593H238.883V541.2H250.797V558.22H263.969ZM261.601 584.12C264.659 584.12 267.077 583.355 268.853 581.826C270.629 580.297 271.517 578.077 271.517 575.166C271.517 572.305 270.629 570.257 268.853 569.024C267.126 567.741 264.709 567.1 261.601 567.1H250.797V584.12H261.601ZM314.726 593L337.814 541.2H349.654L372.816 593H360.236L341.292 547.268H346.028L327.01 593H314.726ZM326.27 581.9L329.452 572.798H356.092L359.348 581.9H326.27ZM416.907 593L400.775 568.062L410.469 562.216L430.523 593H416.907ZM383.237 593V541.2H395.151V593H383.237ZM391.673 572.132V562.142H409.729V572.132H391.673ZM411.579 568.432L400.553 567.1L417.351 541.2H430.005L411.579 568.432ZM450.435 593V548.23L453.173 550.968H433.933V541.2H478.851V550.968H459.611L462.275 548.23V593H450.435ZM490.078 593V541.2H501.992V574.944L526.708 541.2H537.956V593H526.116V559.33L501.4 593H490.078ZM554.553 593V541.2H578.677C584.696 541.2 589.383 542.359 592.737 544.678C596.092 546.997 597.769 550.302 597.769 554.594C597.769 558.837 596.191 562.142 593.033 564.51C589.876 566.829 585.683 567.988 580.453 567.988L581.859 564.88C587.681 564.88 592.195 566.039 595.401 568.358C598.608 570.677 600.211 574.031 600.211 578.422C600.211 582.961 598.485 586.537 595.031 589.152C591.627 591.717 586.645 593 580.083 593H554.553ZM566.467 584.12H579.639C582.402 584.12 584.499 583.577 585.929 582.492C587.36 581.407 588.075 579.729 588.075 577.46C588.075 575.289 587.36 573.686 585.929 572.65C584.499 571.565 582.402 571.022 579.639 571.022H566.467V584.12ZM566.467 562.66H577.641C580.256 562.66 582.229 562.142 583.561 561.106C584.893 560.021 585.559 558.442 585.559 556.37C585.559 554.298 584.893 552.744 583.561 551.708C582.229 550.623 580.256 550.08 577.641 550.08H566.467V562.66ZM613.392 593V541.2H625.306V574.944L650.022 541.2H661.27V593H649.43V559.33L624.714 593H613.392ZM702.361 593.888C698.365 593.888 694.641 593.247 691.187 591.964C687.783 590.632 684.823 588.757 682.307 586.34C679.791 583.923 677.818 581.086 676.387 577.83C675.006 574.574 674.315 570.997 674.315 567.1C674.315 563.203 675.006 559.626 676.387 556.37C677.818 553.114 679.791 550.277 682.307 547.86C684.873 545.443 687.857 543.593 691.261 542.31C694.665 540.978 698.39 540.312 702.435 540.312C706.925 540.312 710.97 541.101 714.571 542.68C718.222 544.209 721.281 546.479 723.747 549.488L716.051 556.592C714.275 554.569 712.302 553.065 710.131 552.078C707.961 551.042 705.593 550.524 703.027 550.524C700.61 550.524 698.39 550.919 696.367 551.708C694.345 552.497 692.593 553.632 691.113 555.112C689.633 556.592 688.474 558.343 687.635 560.366C686.846 562.389 686.451 564.633 686.451 567.1C686.451 569.567 686.846 571.811 687.635 573.834C688.474 575.857 689.633 577.608 691.113 579.088C692.593 580.568 694.345 581.703 696.367 582.492C698.39 583.281 700.61 583.676 703.027 583.676C705.593 583.676 707.961 583.183 710.131 582.196C712.302 581.16 714.275 579.606 716.051 577.534L723.747 584.638C721.281 587.647 718.222 589.941 714.571 591.52C710.97 593.099 706.9 593.888 702.361 593.888ZM745.929 593V548.23L748.667 550.968H729.427V541.2H774.345V550.968H755.105L757.769 548.23V593H745.929ZM809.639 593.888C805.545 593.888 801.746 593.222 798.243 591.89C794.79 590.558 791.781 588.683 789.215 586.266C786.699 583.849 784.726 581.012 783.295 577.756C781.914 574.5 781.223 570.948 781.223 567.1C781.223 563.252 781.914 559.7 783.295 556.444C784.726 553.188 786.724 550.351 789.289 547.934C791.855 545.517 794.864 543.642 798.317 542.31C801.771 540.978 805.52 540.312 809.565 540.312C813.66 540.312 817.409 540.978 820.813 542.31C824.267 543.642 827.251 545.517 829.767 547.934C832.333 550.351 834.331 553.188 835.761 556.444C837.192 559.651 837.907 563.203 837.907 567.1C837.907 570.948 837.192 574.525 835.761 577.83C834.331 581.086 832.333 583.923 829.767 586.34C827.251 588.708 824.267 590.558 820.813 591.89C817.409 593.222 813.685 593.888 809.639 593.888ZM809.565 583.676C811.884 583.676 814.005 583.281 815.929 582.492C817.903 581.703 819.629 580.568 821.109 579.088C822.589 577.608 823.724 575.857 824.513 573.834C825.352 571.811 825.771 569.567 825.771 567.1C825.771 564.633 825.352 562.389 824.513 560.366C823.724 558.343 822.589 556.592 821.109 555.112C819.679 553.632 817.977 552.497 816.003 551.708C814.03 550.919 811.884 550.524 809.565 550.524C807.247 550.524 805.101 550.919 803.127 551.708C801.203 552.497 799.501 553.632 798.021 555.112C796.541 556.592 795.382 558.343 794.543 560.366C793.754 562.389 793.359 564.633 793.359 567.1C793.359 569.517 793.754 571.762 794.543 573.834C795.382 575.857 796.517 577.608 797.947 579.088C799.427 580.568 801.154 581.703 803.127 582.492C805.101 583.281 807.247 583.676 809.565 583.676ZM850.842 593V541.2H860.758L882.81 577.756H877.556L899.238 541.2H909.154L909.228 593H897.98L897.906 558.442H900.052L882.662 587.524H877.334L859.574 558.442H862.09V593H850.842Z" fill="#FC605C"/>
<defs>
<linearGradient id="paint0_linear_5_11810" x1="33.5" y1="293" x2="891" y2="293" gradientUnits="userSpaceOnUse">
<stop stop-color="#FF5855" stop-opacity="0.34"/>
<stop offset="0.453125" stop-color="#FF5855"/>
<stop offset="1" stop-color="#FF5855" stop-opacity="0"/>
</linearGradient>
<linearGradient id="paint1_linear_5_11810" x1="29.5" y1="144.5" x2="903" y2="140" gradientUnits="userSpaceOnUse">
<stop stop-color="#FF5450" stop-opacity="0"/>
<stop offset="0.494792" stop-color="#FF5450"/>
<stop offset="0.963542" stop-color="#FF5450" stop-opacity="0"/>
</linearGradient>
<linearGradient id="paint2_linear_5_11810" x1="25" y1="50.0001" x2="891" y2="42" gradientUnits="userSpaceOnUse">
<stop stop-color="#FF514D"/>
<stop offset="0.0001" stop-color="#FF514D" stop-opacity="0"/>
<stop offset="0.4375" stop-color="#FF514D"/>
<stop offset="1" stop-color="#FF514D" stop-opacity="0"/>
<stop offset="1" stop-color="#FF514D" stop-opacity="0"/>
</linearGradient>
<linearGradient id="paint3_linear_5_11810" x1="18" y1="399" x2="884" y2="391.5" gradientUnits="userSpaceOnUse">
<stop stop-color="#FF5D59" stop-opacity="0.6"/>
<stop offset="0.526042" stop-color="#FF5D59"/>
<stop offset="1" stop-color="#FF5D59" stop-opacity="0.6"/>
</linearGradient>
<linearGradient id="paint4_linear_5_11810" x1="3" y1="480" x2="899" y2="477" gradientUnits="userSpaceOnUse">
<stop stop-color="#FF605D" stop-opacity="0.55"/>
<stop offset="0.5" stop-color="#FF605D"/>
<stop offset="0.979167" stop-color="#FF605D" stop-opacity="0.47"/>
</linearGradient>
</defs>
</svg>
