<svg width="290" height="290" viewBox="0 0 290 290" fill="none" xmlns="http://www.w3.org/2000/svg">
<circle cx="145" cy="145" r="145" fill="#FD4E4A"/>
<circle cx="147" cy="143" r="97.5" stroke="white" stroke-width="5"/>
<path d="M268.172 143.202L276.775 143.501L276.622 147.899C276.585 148.975 276.358 149.811 275.942 150.404C275.538 150.999 274.983 151.284 274.28 151.259C273.576 151.235 273.032 150.928 272.647 150.338C272.272 149.759 272.101 149.001 272.134 148.063L272.7 148.339C272.664 149.383 272.445 150.155 272.044 150.653C271.642 151.162 271.073 151.404 270.337 151.378C269.58 151.352 268.993 151.043 268.576 150.453C268.159 149.862 267.971 148.975 268.012 147.791L268.172 143.202ZM269.787 145.548L269.715 147.642C269.699 148.101 269.761 148.445 269.903 148.674C270.055 148.914 270.29 149.039 270.61 149.05C270.941 149.062 271.184 148.964 271.341 148.756C271.508 148.548 271.6 148.215 271.616 147.757L271.69 145.614L269.787 145.548ZM273.161 145.665L273.096 147.552C273.081 147.989 273.149 148.317 273.302 148.536C273.454 148.765 273.679 148.885 273.978 148.895C274.287 148.906 274.52 148.802 274.677 148.583C274.834 148.375 274.92 148.053 274.935 147.616L275 145.729L273.161 145.665Z" fill="white"/>
<path d="M267.198 156.906C267.302 155.983 267.58 155.183 268.032 154.504C268.494 153.826 269.082 153.317 269.797 152.979C270.51 152.651 271.29 152.535 272.138 152.63C272.997 152.727 273.732 153.013 274.344 153.49C274.965 153.978 275.421 154.603 275.711 155.366C276.012 156.13 276.111 156.972 276.007 157.895C275.906 158.796 275.627 159.559 275.171 160.184C274.725 160.81 274.134 161.243 273.399 161.482L272.581 159.442C273.009 159.265 273.337 159.017 273.566 158.699C273.794 158.392 273.93 158.042 273.974 157.65C274.021 157.226 273.969 156.834 273.816 156.473C273.663 156.113 273.423 155.812 273.096 155.571C272.768 155.341 272.354 155.198 271.856 155.142C271.358 155.086 270.923 155.134 270.552 155.286C270.18 155.448 269.879 155.688 269.65 156.006C269.421 156.323 269.283 156.694 269.235 157.118C269.191 157.51 269.241 157.881 269.384 158.23C269.537 158.59 269.808 158.905 270.196 159.174L268.931 160.98C268.278 160.585 267.798 160.032 267.491 159.321C267.195 158.612 267.097 157.807 267.198 156.906Z" fill="white"/>
<path d="M266.178 164.776L273.193 166.087L272.524 166.531L273.161 163.118L275.174 163.495L273.65 171.657L271.637 171.281L272.274 167.868L272.737 168.525L265.723 167.214L266.178 164.776Z" fill="white"/>
<path d="M261.766 170.306C261.88 169.873 262.059 169.462 262.304 169.075C262.55 168.687 262.826 168.39 263.134 168.184L264.62 169.518C264.406 169.66 264.221 169.838 264.066 170.051C263.908 170.274 263.798 170.504 263.736 170.741C263.646 171.082 263.658 171.372 263.772 171.611C263.872 171.858 264.087 172.113 264.415 172.376L265.322 173.078L265.536 173.333L271.931 178.207L271.321 180.528L263.474 174.445C262.874 174 262.429 173.552 262.14 173.101C261.847 172.66 261.679 172.208 261.636 171.744C261.59 171.291 261.633 170.812 261.766 170.306ZM264.192 172.466L273.818 171.027L273.164 173.518L265.444 174.566L264.192 172.466Z" fill="white"/>
<path d="M262.585 179.587L270.71 182.429L267.885 190.51L259.76 187.667L260.584 185.311L267.304 187.662L266.591 188.006L268.143 183.566L268.487 184.279L261.766 181.928L262.585 179.587Z" fill="white"/>
<path d="M259.5 188.32L267.351 191.851L266.334 194.113L261.665 192.013L264.616 197.936L263.678 200.023L255.827 196.492L256.844 194.23L261.513 196.33L258.556 190.421L259.5 188.32Z" fill="white"/>
<path d="M253.496 200.853L259.744 204.301L258.969 204.513L260.646 201.473L262.439 202.462L258.429 209.734L256.636 208.744L258.312 205.704L258.546 206.473L252.298 203.025L253.496 200.853Z" fill="white"/>
<path d="M253.302 212.581C252.679 213.525 251.998 214.107 251.259 214.328C250.523 214.563 249.774 214.434 249.013 213.942C248.215 213.426 247.775 212.741 247.692 211.887C247.618 211.039 247.906 210.113 248.554 209.11L250.913 205.491L258.141 210.166L256.794 212.249L254.484 210.754L253.302 212.581ZM250.167 209.887C249.897 210.284 249.783 210.648 249.823 210.979C249.863 211.31 250.062 211.591 250.42 211.823C250.779 212.054 251.103 212.112 251.395 211.996C251.695 211.885 251.98 211.631 252.249 211.234L253.14 209.885L251.044 208.529L250.167 209.887Z" fill="white"/>
<path d="M238.855 222.111L243.835 222.473L243.474 224.806L236.987 224.387L238.855 222.111ZM242.721 217.398L249.375 222.86L247.791 224.79L241.138 219.328L242.721 217.398ZM244.128 220.83L245.674 222.099L243.766 224.424L242.22 223.155L244.128 220.83ZM242.344 224.189L244.024 222.546L245.457 227.635L243.773 229.688L242.344 224.189Z" fill="white"/>
<path d="M233.991 227.483L239.965 233.68L238.18 235.402L235.848 232.983L233.153 235.582L235.485 238.001L233.689 239.734L227.715 233.537L229.511 231.804L231.743 234.119L234.438 231.52L232.206 229.205L233.991 227.483Z" fill="white"/>
<path d="M222.824 237.573L223.89 238.872L224.247 239.055L226.155 241.381C226.493 241.793 226.885 242.01 227.33 242.031C227.766 242.059 228.244 241.859 228.764 241.433C229.118 241.142 229.421 240.797 229.673 240.397C229.923 240.012 230.09 239.627 230.173 239.241L231.972 240.021C231.819 240.574 231.544 241.131 231.148 241.691C230.752 242.25 230.29 242.747 229.763 243.18C228.748 244.013 227.765 244.42 226.812 244.402C225.859 244.384 224.966 243.867 224.134 242.853L221.018 239.056L222.824 237.573ZM224.771 235.81C225.29 235.383 225.807 235.104 226.32 234.973C226.839 234.85 227.323 234.86 227.772 235.002C228.22 235.145 228.6 235.406 228.911 235.785C229.236 236.181 229.425 236.605 229.479 237.058C229.525 237.517 229.405 238.002 229.12 238.512C228.841 239.03 228.364 239.567 227.688 240.122L225.92 241.574L224.996 240.448L226.554 239.169C227.008 238.797 227.26 238.465 227.311 238.175C227.355 237.891 227.285 237.638 227.102 237.415C226.899 237.168 226.642 237.047 226.331 237.055C226.018 237.077 225.692 237.227 225.354 237.504C225.033 237.768 224.805 238.079 224.671 238.438C224.544 238.804 224.545 239.183 224.673 239.575L223.645 238.928C223.434 238.384 223.422 237.848 223.61 237.321C223.799 236.794 224.186 236.29 224.771 235.81Z" fill="white"/>
<path d="M219.657 240.171L224.514 247.278L222.361 248.75L216.357 245.723L217.216 245.135L217.672 251.956L215.744 253.275L210.86 246.186L212.723 244.913L216.135 249.906L215.674 249.912L215.319 244.146L216.19 243.55L221.545 246.11L221.225 246.465L217.794 241.445L219.657 240.171Z" fill="white"/>
<path d="M210.644 250.726L214.789 256.77L212.227 258.284L208.936 251.736L210.644 250.726ZM207.747 247.773C208.133 247.545 208.523 247.482 208.918 247.583C209.312 247.685 209.61 247.905 209.81 248.245C210.016 248.594 210.063 248.957 209.951 249.333C209.844 249.718 209.598 250.025 209.212 250.253C208.817 250.486 208.43 250.554 208.05 250.456C207.666 250.373 207.372 250.157 207.165 249.808C206.965 249.468 206.915 249.101 207.017 248.706C207.109 248.317 207.353 248.006 207.747 247.773Z" fill="white"/>
<path d="M197.387 255.97C197.718 255.822 198.06 255.764 198.412 255.794C198.758 255.838 199.075 255.96 199.362 256.159C199.654 256.368 199.879 256.652 200.04 257.013C200.2 257.373 200.259 257.727 200.214 258.074C200.17 258.42 200.046 258.732 199.843 259.01C199.634 259.301 199.364 259.521 199.033 259.668C198.701 259.816 198.362 259.867 198.016 259.823C197.664 259.793 197.344 259.678 197.057 259.479C196.77 259.28 196.546 259 196.386 258.64C196.225 258.279 196.165 257.921 196.205 257.564C196.249 257.218 196.376 256.899 196.585 256.607C196.788 256.33 197.055 256.117 197.387 255.97Z" fill="white"/>
<path d="M185.141 258.163L187.58 266.418L183.361 267.665C182.327 267.971 181.463 268.02 180.769 267.814C180.077 267.618 179.631 267.183 179.432 266.508C179.232 265.833 179.351 265.219 179.789 264.667C180.219 264.128 180.884 263.726 181.784 263.46L181.702 264.085C180.7 264.381 179.898 264.418 179.299 264.194C178.689 263.974 178.279 263.511 178.071 262.806C177.856 262.079 177.963 261.425 178.392 260.842C178.82 260.259 179.602 259.8 180.737 259.465L185.141 258.163ZM183.427 260.438L181.417 261.032C180.978 261.162 180.671 261.33 180.499 261.537C180.319 261.757 180.275 262.021 180.365 262.327C180.459 262.645 180.629 262.845 180.876 262.927C181.126 263.02 181.471 263.002 181.911 262.872L183.967 262.264L183.427 260.438ZM184.384 263.675L182.573 264.211C182.154 264.335 181.865 264.504 181.705 264.718C181.536 264.935 181.494 265.186 181.578 265.473C181.666 265.769 181.838 265.957 182.095 266.037C182.342 266.12 182.675 266.099 183.095 265.975L184.905 265.44L184.384 263.675Z" fill="white"/>
<path d="M172.045 261.496C172.952 261.301 173.8 261.31 174.587 261.523C175.377 261.746 176.046 262.143 176.593 262.713C177.131 263.285 177.489 263.988 177.668 264.822C177.849 265.667 177.811 266.455 177.553 267.187C177.287 267.931 176.839 268.562 176.208 269.079C175.58 269.607 174.812 269.968 173.904 270.163C173.018 270.353 172.206 270.331 171.468 270.097C170.733 269.873 170.135 269.45 169.674 268.829L171.349 267.406C171.653 267.755 171.992 267.988 172.366 268.104C172.73 268.222 173.104 268.24 173.49 268.157C173.907 268.068 174.263 267.893 174.556 267.634C174.85 267.374 175.059 267.051 175.183 266.665C175.297 266.28 175.301 265.843 175.196 265.353C175.091 264.863 174.907 264.466 174.646 264.162C174.374 263.86 174.051 263.651 173.677 263.535C173.303 263.419 172.907 263.406 172.49 263.495C172.104 263.578 171.769 263.743 171.483 263.99C171.19 264.249 170.977 264.605 170.846 265.059L168.731 264.433C168.899 263.688 169.271 263.057 169.847 262.541C170.426 262.035 171.159 261.686 172.045 261.496Z" fill="white"/>
<path d="M164.292 262.989L165.278 270.056L164.644 269.563L168.082 269.083L168.365 271.111L160.141 272.26L159.858 270.231L163.297 269.751L162.822 270.399L161.836 263.332L164.292 262.989Z" fill="white"/>
<path d="M157.611 260.536C158.058 260.507 158.504 260.547 158.95 260.657C159.395 260.767 159.765 260.935 160.057 261.161L159.264 262.993C159.061 262.836 158.834 262.717 158.583 262.637C158.321 262.558 158.068 262.527 157.823 262.543C157.472 262.566 157.201 262.669 157.01 262.853C156.807 263.027 156.633 263.311 156.488 263.705L156.11 264.788L155.937 265.072L153.342 272.683L150.947 272.84L154.228 263.469C154.459 262.759 154.743 262.195 155.079 261.777C155.404 261.36 155.78 261.058 156.206 260.869C156.621 260.682 157.09 260.571 157.611 260.536ZM156.332 263.523L160.75 272.196L158.179 272.365L154.738 265.375L156.332 263.523Z" fill="white"/>
<path d="M148.517 264.238L148.384 272.845L139.825 272.713L139.958 264.106L142.454 264.145L142.344 271.264L141.793 270.695L146.496 270.768L145.927 271.319L146.037 264.2L148.517 264.238Z" fill="white"/>
<path d="M139.258 264.054L138.364 272.616L135.898 272.358L136.429 267.266L131.728 271.922L129.453 271.685L130.347 263.123L132.813 263.381L132.282 268.473L136.967 263.815L139.258 264.054Z" fill="white"/>
<path d="M125.567 262.298L124.284 269.317L123.837 268.65L127.252 269.274L126.884 271.289L118.715 269.795L119.083 267.781L122.499 268.405L121.844 268.871L123.127 261.851L125.567 262.298Z" fill="white"/>
<path d="M114.272 265.779C113.18 265.485 112.413 265.022 111.97 264.39C111.515 263.765 111.401 263.014 111.628 262.136C111.866 261.217 112.377 260.584 113.161 260.236C113.942 259.898 114.911 259.879 116.068 260.178L120.246 261.277L118.09 269.61L115.689 268.989L116.378 266.324L114.272 265.779ZM115.84 261.954C115.378 261.823 114.996 261.829 114.695 261.972C114.394 262.114 114.19 262.392 114.083 262.805C113.976 263.218 114.024 263.544 114.226 263.784C114.426 264.034 114.757 264.224 115.219 264.355L116.779 264.775L117.404 262.359L115.84 261.954Z" fill="white"/>
<path d="M100.759 255.055L101.968 259.901L99.6396 260.284L98.0145 253.99L100.759 255.055ZM106.442 257.261L103.328 265.286L101.001 264.383L104.115 256.358L106.442 257.261ZM103.62 259.667L102.897 261.532L100.093 260.443L100.816 258.579L103.62 259.667ZM99.8731 259.019L101.958 260.103L97.5707 263.051L95.0947 262.09L99.8731 259.019Z" fill="white"/>
<path d="M94.1888 252.134L90.1719 259.747L87.9788 258.589L89.5467 255.617L86.2358 253.869L84.6678 256.841L82.4605 255.676L86.4775 248.063L88.6848 249.228L87.184 252.072L90.4949 253.82L91.9957 250.976L94.1888 252.134Z" fill="white"/>
<path d="M81.1694 244.698L80.2677 246.116L80.2052 246.512L78.5908 249.05C78.3045 249.5 78.2208 249.94 78.3394 250.369C78.4491 250.793 78.7874 251.186 79.3543 251.546C79.7412 251.793 80.1637 251.973 80.6218 252.088C81.0652 252.205 81.4832 252.244 81.8758 252.203L81.6957 254.156C81.1223 254.183 80.508 254.095 79.8527 253.893C79.1975 253.691 78.5819 253.407 78.006 253.04C76.8992 252.336 76.2058 251.528 75.9259 250.616C75.6461 249.705 75.8582 248.695 76.5624 247.588L79.1987 243.444L81.1694 244.698ZM83.4518 245.999C84.0187 246.36 84.4445 246.764 84.7292 247.21C85.0082 247.666 85.1498 248.129 85.1539 248.6C85.1581 249.07 85.0285 249.512 84.7651 249.926C84.4903 250.358 84.1464 250.67 83.7334 250.863C83.3113 251.049 82.8135 251.087 82.2401 250.974C81.661 250.871 81.0024 250.585 80.2645 250.115L78.3343 248.887L79.1158 247.658L80.8165 248.741C81.3114 249.056 81.7049 249.192 81.9969 249.151C82.28 249.103 82.4988 248.958 82.6533 248.715C82.8251 248.445 82.859 248.163 82.7551 247.869C82.6364 247.579 82.3926 247.316 82.0237 247.081C81.6727 246.858 81.3062 246.739 80.9242 246.723C80.5365 246.717 80.1766 246.835 79.8445 247.079L80.1389 245.901C80.5895 245.53 81.0946 245.352 81.6541 245.367C82.2136 245.382 82.8129 245.592 83.4518 245.999Z" fill="white"/>
<path d="M77.7772 242.522L72.5633 249.371L70.4886 247.791L71.4711 241.138L72.2985 241.768L65.97 244.349L64.1117 242.934L69.3001 236.065L71.0948 237.432L67.4315 242.245L67.2811 241.808L72.6401 239.655L73.4802 240.295L72.7368 246.185L72.2998 245.993L75.9825 241.155L77.7772 242.522Z" fill="white"/>
<path d="M64.925 237.261L60.4774 243.086L58.2403 241.124L63.4336 235.953L64.925 237.261ZM66.8269 233.587C67.1637 233.883 67.3454 234.234 67.372 234.64C67.3987 235.047 67.2819 235.398 67.0217 235.695C66.7545 236 66.4247 236.158 66.0324 236.168C65.6331 236.187 65.265 236.048 64.9283 235.753C64.5835 235.45 64.3983 235.103 64.3726 234.712C64.3319 234.322 64.4452 233.974 64.7124 233.669C64.9726 233.372 65.3059 233.211 65.7122 233.184C66.1106 233.15 66.4821 233.285 66.8269 233.587Z" fill="white"/>
<path d="M55.8356 226.348C56.0796 226.616 56.2425 226.922 56.3244 227.266C56.3913 227.609 56.3752 227.948 56.2763 228.283C56.1696 228.625 55.9702 228.929 55.6783 229.195C55.3864 229.46 55.069 229.627 54.7261 229.693C54.3832 229.76 54.0482 229.741 53.721 229.635C53.3788 229.528 53.0856 229.34 52.8416 229.072C52.5976 228.804 52.4422 228.498 52.3754 228.155C52.2935 227.811 52.302 227.472 52.4009 227.137C52.4997 226.802 52.6951 226.501 52.987 226.236C53.2789 225.97 53.6003 225.8 53.9511 225.726C54.294 225.659 54.6366 225.679 54.9788 225.786C55.306 225.892 55.5916 226.079 55.8356 226.348Z" fill="white"/>
<path d="M49.906 215.422L42.8362 220.333L40.327 216.719C39.7127 215.834 39.3942 215.029 39.3716 214.304C39.3403 213.586 39.6137 213.026 40.1919 212.624C40.7701 212.222 41.3899 212.143 42.0513 212.384C42.6978 212.624 43.2887 213.129 43.824 213.9L43.2049 214.018C42.6088 213.16 42.3225 212.41 42.3459 211.771C42.3632 211.122 42.6741 210.588 43.2786 210.168C43.9006 209.736 44.5554 209.632 45.2431 209.856C45.9307 210.079 46.6122 210.678 47.2873 211.65L49.906 215.422ZM47.2083 214.51L46.013 212.789C45.7515 212.412 45.4955 212.174 45.2451 212.075C44.9799 211.974 44.7158 212.014 44.453 212.197C44.1814 212.385 44.0452 212.61 44.0442 212.87C44.0344 213.137 44.1603 213.459 44.4219 213.835L45.6445 215.597L47.2083 214.51ZM44.4356 216.436L43.3589 214.885C43.1095 214.526 42.8583 214.305 42.6052 214.221C42.3461 214.128 42.0938 214.167 41.8485 214.337C41.5945 214.514 41.47 214.736 41.4751 215.006C41.4741 215.266 41.5983 215.576 41.8477 215.935L42.9244 217.486L44.4356 216.436Z" fill="white"/>
<path d="M42.5929 204.009C43.0618 204.81 43.3185 205.618 43.3629 206.432C43.3982 207.252 43.231 208.012 42.8614 208.71C42.4865 209.4 41.9308 209.96 41.1946 210.392C40.4491 210.829 39.6887 211.039 38.9133 211.024C38.1233 211.005 37.3839 210.776 36.6953 210.339C35.9974 209.907 35.414 209.291 34.9451 208.49C34.4869 207.708 34.2537 206.93 34.2454 206.156C34.2279 205.387 34.442 204.687 34.8877 204.055L36.7634 205.2C36.5268 205.598 36.412 205.993 36.4188 206.384C36.4203 206.767 36.5207 207.128 36.7202 207.469C36.9358 207.837 37.2127 208.12 37.5508 208.317C37.8889 208.515 38.2611 208.612 38.6672 208.609C39.0679 208.597 39.4846 208.464 39.9171 208.21C40.3496 207.957 40.6693 207.658 40.8759 207.315C41.0772 206.962 41.1745 206.59 41.1676 206.198C41.1608 205.806 41.0496 205.426 40.834 205.058C40.6345 204.718 40.373 204.451 40.0495 204.257C39.7113 204.059 39.3062 203.969 38.8341 203.986L38.7668 201.782C39.5268 201.707 40.2422 201.863 40.9131 202.249C41.5748 202.64 42.1347 203.227 42.5929 204.009Z" fill="white"/>
<path d="M38.7958 197.266L32.401 200.432L32.6687 199.675L34.2088 202.787L32.3735 203.696L28.6901 196.253L30.5254 195.344L32.0655 198.456L31.3009 198.21L37.6958 195.043L38.7958 197.266Z" fill="white"/>
<path d="M38.9679 190.084C39.1362 190.499 39.2383 190.935 39.274 191.393C39.3098 191.85 39.2661 192.254 39.143 192.603L37.1546 192.425C37.2406 192.183 37.282 191.93 37.2788 191.667C37.2716 191.393 37.2219 191.143 37.1298 190.916C36.9976 190.589 36.8143 190.365 36.58 190.241C36.3516 190.103 36.0274 190.028 35.6075 190.014L34.4606 189.995L34.1364 189.92L26.0967 189.848L25.1951 187.624L35.1219 187.793C35.8685 187.79 36.4929 187.882 36.9948 188.07C37.4928 188.248 37.8981 188.509 38.2106 188.854C38.5192 189.19 38.7716 189.6 38.9679 190.084ZM35.7313 189.808L28.8855 196.728L27.9178 194.341L33.472 188.877L35.7313 189.808Z" fill="white"/>
<path d="M32.7807 183.202L24.5735 185.798L21.9933 177.636L30.2005 175.04L30.9529 177.42L24.1644 179.567L24.5295 178.864L25.9474 183.349L25.2447 182.984L32.0332 180.837L32.7807 183.202Z" fill="white"/>
<path d="M30.0105 174.332L21.6082 176.202L21.0696 173.782L26.0672 172.669L20.1591 169.69L19.6621 167.456L28.0644 165.586L28.603 168.006L23.6054 169.119L29.5101 172.083L30.0105 174.332Z" fill="white"/>
<path d="M27.333 160.779L20.2655 161.766L20.7586 161.132L21.2384 164.57L19.2101 164.854L18.0625 156.629L20.0908 156.346L20.5706 159.785L19.9228 159.31L26.9902 158.323L27.333 160.779Z" fill="white"/>
<path d="M20.4467 151.046C20.3833 149.917 20.5825 149.043 21.0443 148.425C21.4948 147.797 22.1723 147.453 23.0771 147.394C24.0244 147.331 24.7861 147.618 25.3623 148.254C25.9279 148.89 26.2498 149.804 26.3281 150.996L26.5952 155.308L18.0057 155.872L17.8432 153.398L20.5893 153.217L20.4467 151.046ZM24.5706 151.336C24.5498 150.856 24.4246 150.496 24.1949 150.254C23.9653 150.013 23.6376 149.906 23.2118 149.934C22.7861 149.962 22.4911 150.11 22.3269 150.377C22.1521 150.645 22.0751 151.019 22.0959 151.499L22.1858 153.112L24.6765 152.949L24.5706 151.336Z" fill="white"/>
<path d="M26.3486 134.339L22.1294 137.011L21.0328 134.921L26.4962 131.399L26.3486 134.339ZM26.043 140.427L17.4459 139.996L17.571 137.503L26.1682 137.935L26.043 140.427ZM22.8714 138.506L20.8739 138.406L21.0247 135.401L23.0222 135.502L22.8714 138.506ZM22.3072 134.745L21.9344 137.065L17.7555 133.827L17.8886 131.175L22.3072 134.745Z" fill="white"/>
<path d="M26.9951 127.386L18.5048 125.967L18.9133 123.521L22.2274 124.075L22.8441 120.382L19.53 119.828L19.9411 117.366L28.4314 118.785L28.0203 121.247L24.8483 120.717L24.2316 124.41L27.4036 124.94L26.9951 127.386Z" fill="white"/>
<path d="M29.9274 112.645L28.2978 112.236L27.902 112.302L24.9843 111.57C24.467 111.44 24.0233 111.5 23.6532 111.748C23.2857 111.985 23.0203 112.43 22.8569 113.082C22.7454 113.527 22.7076 113.985 22.7436 114.456C22.7717 114.914 22.8672 115.323 23.03 115.682L21.1205 116.127C20.9139 115.591 20.803 114.981 20.7879 114.295C20.7728 113.61 20.8482 112.936 21.0142 112.274C21.3332 111.001 21.8809 110.088 22.6573 109.535C23.4337 108.982 24.4583 108.865 25.7308 109.184L30.4953 110.379L29.9274 112.645ZM29.4136 115.221C29.2502 115.873 29.0015 116.405 28.6676 116.816C28.3232 117.224 27.9286 117.505 27.4835 117.657C27.0384 117.809 26.578 117.826 26.102 117.706C25.6054 117.582 25.2007 117.354 24.8879 117.022C24.5776 116.681 24.3852 116.22 24.3105 115.641C24.2255 115.058 24.2893 114.343 24.502 113.495L25.0582 111.275L26.4705 111.629L25.9804 113.585C25.8377 114.154 25.8323 114.571 25.9641 114.835C26.0985 115.088 26.3053 115.25 26.5847 115.32C26.8951 115.398 27.1732 115.341 27.4191 115.15C27.6572 114.946 27.8294 114.632 27.9357 114.207C28.0369 113.804 28.0345 113.418 27.9287 113.051C27.8125 112.681 27.5863 112.377 27.2502 112.138L28.4609 112.046C28.9548 112.357 29.2831 112.78 29.4458 113.316C29.6084 113.852 29.5977 114.487 29.4136 115.221Z" fill="white"/>
<path d="M30.8957 108.712L22.7598 105.9L23.6113 103.435L30.2367 102.288L29.8971 103.272L25.4656 98.0665L26.2282 95.8585L34.3745 98.64L33.638 100.772L27.9218 98.7968L28.2891 98.5175L32.0107 102.935L31.6659 103.934L25.84 105.069L25.8857 104.594L31.6322 106.58L30.8957 108.712Z" fill="white"/>
<path d="M31.9573 94.576L25.0391 92.1579L26.2083 89.4212L32.7368 92.7515L31.9573 94.576ZM36.0398 95.2424C35.8638 95.6544 35.5868 95.9362 35.2088 96.0878C34.8309 96.2394 34.4604 96.2377 34.0975 96.0825C33.7248 95.9232 33.4725 95.6587 33.3404 95.289C33.1985 94.9152 33.2156 94.5223 33.3916 94.1103C33.5718 93.6885 33.8439 93.4046 34.2079 93.2586C34.5663 93.0986 34.9318 93.0982 35.3045 93.2576C35.6674 93.4127 35.9247 93.6793 36.0763 94.0573C36.2322 94.4256 36.22 94.8206 36.0398 95.2424Z" fill="white"/>
<path d="M39.2154 82.994C39.0367 83.3096 38.797 83.5599 38.4961 83.745C38.1912 83.9156 37.8641 84.0062 37.5149 84.0168C37.1565 84.0222 36.8055 83.9276 36.4621 83.7332C36.1187 83.5387 35.8617 83.2889 35.6911 82.9839C35.5205 82.679 35.4346 82.3545 35.4332 82.0104C35.4277 81.6519 35.5144 81.3148 35.693 80.9992C35.8716 80.6835 36.1134 80.4404 36.4183 80.2699C36.7192 80.0848 37.0442 79.9869 37.3934 79.9763C37.7426 79.9656 38.0889 80.0576 38.4324 80.2521C38.7758 80.4465 39.0374 80.6989 39.2173 81.0092C39.3878 81.3141 39.4758 81.6459 39.4812 82.0045C39.4826 82.3485 39.394 82.6783 39.2154 82.994Z" fill="white"/>
<path d="M47.7975 73.7616L40.9307 68.5708L43.583 65.0601C44.2325 64.2005 44.8978 63.6471 45.5792 63.4C46.252 63.1464 46.8692 63.2319 47.4308 63.6565C47.9924 64.081 48.2613 64.6453 48.2374 65.3493C48.2115 66.0383 47.9156 66.7574 47.3497 67.5063L47.0446 66.9547C47.6747 66.1206 48.2972 65.6151 48.9122 65.4382C49.5336 65.2527 50.1378 65.3819 50.725 65.8257C51.3291 66.2824 51.632 66.8724 51.6337 67.5957C51.6353 68.319 51.2793 69.153 50.5656 70.0977L47.7975 73.7616ZM47.8238 70.9133L49.0873 69.2409C49.3637 68.875 49.5099 68.5576 49.5258 68.2888C49.5397 68.0051 49.4189 67.7668 49.1637 67.5738C48.8999 67.3744 48.6441 67.3148 48.3964 67.3949C48.1402 67.4687 47.8738 67.6885 47.5973 68.0545L46.3049 69.7652L47.8238 70.9133ZM45.1307 68.8775L46.2688 67.3711C46.5324 67.0222 46.6647 66.7143 46.6656 66.4476C46.673 66.1724 46.5576 65.9448 46.3193 65.7647C46.0726 65.5781 45.8221 65.5292 45.568 65.6179C45.3202 65.698 45.0646 65.9126 44.801 66.2615L43.6629 67.768L45.1307 68.8775Z" fill="white"/>
<path d="M56.4406 63.1217C55.8263 63.8173 55.1392 64.3133 54.3793 64.6097C53.6114 64.8991 52.838 64.9771 52.059 64.8439C51.2872 64.7027 50.5815 64.3496 49.9421 63.7845C49.2947 63.2124 48.8574 62.5554 48.6301 61.8137C48.402 61.0569 48.3881 60.283 48.5885 59.4922C48.781 58.6942 49.1843 57.9475 49.7987 57.2519C50.3989 56.5724 51.0653 56.1079 51.7979 55.8585C52.5225 55.6021 53.2545 55.587 53.9938 55.8134L53.4915 57.9531C53.0395 57.8526 52.6286 57.8667 52.2587 57.9954C51.896 58.1161 51.584 58.3243 51.3227 58.6201C51.0402 58.9399 50.858 59.2913 50.7759 59.6743C50.6938 60.0573 50.7175 60.4413 50.8471 60.8263C50.9838 61.2033 51.24 61.5577 51.6156 61.8897C51.9913 62.2217 52.3745 62.4323 52.7654 62.5215C53.1633 62.6027 53.5472 62.579 53.917 62.4503C54.2869 62.3216 54.613 62.0973 54.8954 61.7775C55.1567 61.4817 55.3289 61.1499 55.4119 60.7819C55.494 60.399 55.4533 59.9858 55.2899 59.5424L57.3628 58.7907C57.6705 59.4896 57.7457 60.2181 57.5886 60.9761C57.4235 61.727 57.0409 62.4422 56.4406 63.1217Z" fill="white"/>
<path d="M61.87 57.1777L56.8801 52.0764L57.6831 52.0964L55.2018 54.525L53.7697 53.0609L59.7043 47.2526L61.1364 48.7166L58.6551 51.1452L58.6525 50.3417L63.6424 55.443L61.87 57.1777Z" fill="white"/>
<path d="M68.1992 55.5754C67.8581 55.866 67.4762 56.1002 67.0534 56.2782C66.6306 56.4563 66.2341 56.5418 65.864 56.5348L65.4069 54.5911C65.6637 54.5966 65.9166 54.5563 66.1656 54.4703C66.4227 54.3774 66.6446 54.2514 66.8314 54.0923C67.0993 53.864 67.2551 53.6192 67.2988 53.3578C67.3575 53.0977 67.3273 52.7661 67.2083 52.363L66.8648 51.2684L66.8346 50.9368L64.3727 43.2815L66.1997 41.7252L69.1624 51.2028C69.4007 51.9106 69.5098 52.5323 69.4895 53.068C69.4774 53.5968 69.3568 54.0639 69.1276 54.4693C68.9065 54.8678 68.597 55.2365 68.1992 55.5754ZM67.4424 52.4158L58.7212 48.0957L60.6822 46.4253L67.6151 49.9777L67.4424 52.4158Z" fill="white"/>
<path d="M73.0581 47.2786L68.0209 40.2983L74.9609 35.2873L79.9981 42.2675L77.9745 43.7287L73.808 37.9551L74.5897 38.0814L70.776 40.8351L70.9023 40.0532L75.0688 45.8268L73.0581 47.2786Z" fill="white"/>
<path d="M80.9701 41.6044L76.5656 34.2086L78.696 32.9391L81.3158 37.3381L82.2971 30.7933L84.2626 29.622L88.6671 37.0178L86.5367 38.2873L83.9169 33.8883L82.9493 40.425L80.9701 41.6044Z" fill="white"/>
<path d="M92.5413 35.0377L89.376 28.6422L90.1334 28.9099L87.022 30.4507L86.1136 28.6152L93.5551 24.93L94.4635 26.7655L91.3521 28.3063L91.5985 27.5416L94.7638 33.9372L92.5413 35.0377Z" fill="white"/>
<path d="M99.8895 25.2953C100.941 24.8802 101.833 24.7948 102.565 25.0389C103.303 25.2691 103.842 25.8044 104.183 26.6446C104.539 27.5244 104.507 28.3378 104.084 29.0846C103.658 29.8216 102.891 30.4145 101.784 30.8635L97.7747 32.4723L94.5411 24.4947L96.8393 23.5626L97.8731 26.1131L99.8895 25.2953ZM100.909 29.3018C101.358 29.1313 101.661 28.899 101.818 28.6051C101.975 28.3112 101.974 27.9665 101.813 27.5711C101.653 27.1757 101.42 26.9421 101.115 26.8702C100.806 26.7885 100.426 26.8329 99.9776 27.0034L98.4741 27.5959L99.4117 29.9091L100.909 29.3018Z" fill="white"/>
<path d="M116.728 25.8965L112.858 22.7412L114.492 21.0389L119.564 25.1047L116.728 25.8965ZM110.857 27.536L108.543 19.2448L110.947 18.5735L113.261 26.8647L110.857 27.536ZM111.675 23.9187L111.137 21.9924L114.034 21.1834L114.572 23.1098L111.675 23.9187ZM115.063 22.1918L112.744 22.5735L114.491 17.5838L117.049 16.8694L115.063 22.1918Z" fill="white"/>
<path d="M123.8 24.2307L122.48 15.7246L124.93 15.344L125.446 18.6642L129.145 18.0897L128.63 14.7694L131.096 14.3864L132.417 22.8926L129.95 23.2756L129.457 20.0977L125.757 20.6722L126.25 23.8501L123.8 24.2307Z" fill="white"/>
<path d="M139.098 22.3398L138.975 20.6643L138.788 20.309L138.568 17.3091C138.529 16.7772 138.334 16.3744 137.982 16.1007C137.641 15.8263 137.136 15.7137 136.465 15.7629C136.008 15.7965 135.561 15.9042 135.125 16.086C134.699 16.2563 134.341 16.4751 134.051 16.7424L133.029 15.0688C133.473 14.7046 134.018 14.4079 134.665 14.1786C135.311 13.9493 135.974 13.8097 136.655 13.7596C137.964 13.6635 139.002 13.8974 139.771 14.4613C140.54 15.0252 140.972 15.9614 141.068 17.2698L141.428 22.1687L139.098 22.3398ZM136.49 22.6596C135.82 22.7089 135.238 22.6394 134.742 22.4511C134.247 22.2522 133.856 21.9654 133.572 21.5905C133.288 21.2157 133.128 20.7836 133.092 20.2942C133.055 19.7836 133.144 19.3278 133.361 18.9269C133.588 18.5251 133.965 18.198 134.492 17.9454C135.018 17.6821 135.717 17.5185 136.59 17.4544L138.871 17.2868L138.978 18.7389L136.967 18.8866C136.382 18.9295 135.985 19.055 135.776 19.2629C135.577 19.47 135.488 19.7171 135.509 20.0044C135.533 20.3235 135.674 20.5698 135.933 20.7433C136.201 20.9054 136.554 20.9705 136.99 20.9384C137.405 20.908 137.77 20.7849 138.086 20.5692C138.401 20.3428 138.618 20.0327 138.739 19.6388L139.207 20.7596C139.066 21.326 138.767 21.7705 138.31 22.0928C137.852 22.4152 137.246 22.6042 136.49 22.6596Z" fill="white"/>
<path d="M143.632 22.0173L143.765 13.4104L146.372 13.4507L149.529 19.3881L148.489 19.3721L152.052 13.5384L154.388 13.5745L154.287 22.1819L152.031 22.1471L152.124 16.0998L152.504 16.3617L149.468 21.2754L148.412 21.2591L145.516 16.0777L145.981 15.9729L145.888 22.0522L143.632 22.0173Z" fill="white"/>
<path d="M156.434 18.538L156.531 11.2098L159.497 11.4507L158.412 18.6986L156.434 18.538ZM157.098 22.6211C156.652 22.5849 156.296 22.4116 156.033 22.1012C155.769 21.7908 155.653 21.439 155.685 21.0456C155.718 20.6416 155.888 20.3183 156.197 20.0759C156.507 19.8227 156.885 19.7143 157.331 19.7506C157.788 19.7877 158.144 19.9557 158.398 20.2546C158.663 20.5437 158.78 20.8902 158.747 21.2942C158.715 21.6876 158.544 22.0162 158.233 22.2799C157.934 22.5445 157.555 22.6583 157.098 22.6211Z" fill="white"/>
<path d="M170.619 21.8745C170.263 21.8038 169.95 21.6546 169.68 21.4269C169.422 21.1909 169.234 20.9087 169.114 20.5804C168.996 20.2416 168.976 19.8787 169.053 19.4916C169.13 19.1045 169.286 18.7822 169.522 18.5246C169.758 18.267 170.039 18.0836 170.366 17.9744C170.704 17.8568 171.052 17.8334 171.407 17.9041C171.763 17.9748 172.07 18.1281 172.327 18.3642C172.597 18.5919 172.792 18.8699 172.912 19.1982C173.032 19.5265 173.053 19.8842 172.976 20.2713C172.899 20.6584 172.742 20.986 172.504 21.254C172.268 21.5116 171.98 21.6992 171.642 21.8168C171.315 21.926 170.974 21.9452 170.619 21.8745Z" fill="white"/>
<path d="M182.079 27.1383L184.858 18.9914L189.022 20.413C190.042 20.7611 190.776 21.2201 191.223 21.79C191.675 22.3499 191.787 22.963 191.56 23.6292C191.332 24.2955 190.881 24.7274 190.205 24.925C189.542 25.1158 188.767 25.0596 187.878 24.7564L188.307 24.2939C189.296 24.6317 189.971 25.065 190.331 25.5938C190.702 26.1261 190.769 26.7405 190.531 27.4371C190.286 28.1539 189.821 28.6261 189.135 28.854C188.448 29.0818 187.545 29.0044 186.424 28.6219L182.079 27.1383ZM184.792 26.2724L186.775 26.9495C187.209 27.0977 187.556 27.1373 187.817 27.0684C188.09 26.9928 188.279 26.8035 188.382 26.5007C188.489 26.1877 188.465 25.9261 188.312 25.7159C188.162 25.4955 187.869 25.3112 187.435 25.163L185.406 24.4704L184.792 26.2724ZM185.882 23.0772L187.668 23.6872C188.082 23.8285 188.416 23.8579 188.67 23.7754C188.933 23.6963 189.113 23.5155 189.21 23.2328C189.31 22.94 189.278 22.6868 189.114 22.4731C188.96 22.2628 188.676 22.0871 188.263 21.9458L186.476 21.3358L185.882 23.0772Z" fill="white"/>
<path d="M194.379 31.8145C193.525 31.4497 192.839 30.9531 192.318 30.3246C191.802 29.6864 191.485 28.9765 191.367 28.1951C191.258 27.4178 191.371 26.6368 191.706 25.852C192.046 25.0575 192.532 24.4359 193.164 23.987C193.811 23.5326 194.541 23.2763 195.355 23.2181C196.172 23.1501 197.008 23.2985 197.861 23.6633C198.695 24.0197 199.345 24.5065 199.812 25.1238C200.284 25.7312 200.528 26.4215 200.546 27.1947L198.357 27.3901C198.31 26.9293 198.168 26.5435 197.929 26.2328C197.701 25.9263 197.405 25.6954 197.042 25.5403C196.65 25.3726 196.259 25.3099 195.87 25.3523C195.48 25.3947 195.123 25.5379 194.799 25.7819C194.484 26.0301 194.228 26.3847 194.031 26.8458C193.834 27.3068 193.755 27.7369 193.793 28.136C193.841 28.5394 193.984 28.8965 194.223 29.2072C194.461 29.5179 194.776 29.7571 195.169 29.9249C195.532 30.08 195.901 30.1392 196.276 30.1024C196.665 30.06 197.045 29.8916 197.414 29.5971L198.779 31.3292C198.213 31.841 197.545 32.1413 196.776 32.2303C196.012 32.3095 195.212 32.1709 194.379 31.8145Z" fill="white"/>
<path d="M201.936 35.2002L205.219 28.8644L205.451 29.6336L202.369 28.0354L203.311 26.217L210.683 30.0394L209.741 31.8577L206.659 30.2596L207.421 30.0059L204.138 36.3418L201.936 35.2002Z" fill="white"/>
<path d="M205.501 40.7486C205.119 40.515 204.777 40.2251 204.476 39.8787C204.175 39.5323 203.971 39.1822 203.862 38.8282L205.565 37.7879C205.64 38.0337 205.758 38.2615 205.917 38.4713C206.085 38.6867 206.274 38.8583 206.484 38.9862C206.784 39.1698 207.065 39.2415 207.327 39.2015C207.592 39.1762 207.898 39.0441 208.244 38.8054L209.176 38.1377L209.482 38.0056L215.986 33.2793L218.034 34.5305L209.955 40.3009C209.357 40.7481 208.801 41.0455 208.285 41.1933C207.779 41.3466 207.298 41.3776 206.841 41.2861C206.394 41.2002 205.947 41.0211 205.501 40.7486ZM208.266 39.0443L209.651 29.4088L211.849 30.7518L210.636 38.4484L208.266 39.0443Z" fill="white"/>
<path d="M214.963 42.828L220.026 35.8661L226.947 40.9025L221.885 47.8643L219.866 46.3958L224.054 40.6374L224.177 41.4198L220.374 38.6521L221.156 38.5287L216.968 44.2871L214.963 42.828Z" fill="white"/>
<path d="M222.143 48.0298L227.771 41.5162L229.647 43.1381L226.3 47.0124L232.818 45.8796L234.549 47.376L228.922 53.8896L227.045 52.2677L230.393 48.3934L223.886 49.5366L222.143 48.0298Z" fill="white"/>
<path d="M232.569 57.4515L237.651 52.4416L237.634 53.2449L235.197 50.7717L236.655 49.3339L242.484 55.2491L241.025 56.6869L238.588 54.2137L239.392 54.2082L234.31 59.2181L232.569 57.4515Z" fill="white"/>
<path d="M243.97 61.1995C244.694 62.0673 245.056 62.8871 245.055 63.6589C245.069 64.4319 244.73 65.1124 244.04 65.7004C243.318 66.316 242.535 66.5409 241.694 66.375C240.86 66.2023 240.056 65.6611 239.282 64.7514L236.494 61.4517L243.046 55.8697L244.654 57.758L242.559 59.5426L243.97 61.1995ZM240.489 63.4292C240.792 63.8016 241.107 64.0161 241.436 64.0727C241.764 64.1293 242.091 64.0192 242.415 63.7425C242.74 63.4659 242.889 63.1713 242.861 62.8587C242.841 62.5393 242.679 62.1934 242.376 61.821L241.341 60.5802L239.441 62.1987L240.489 63.4292Z" fill="white"/>
<path d="M248.949 77.7108L250.726 73.0429L252.856 74.0588L250.592 80.1535L248.949 77.7108ZM245.546 72.6528L252.687 67.8461L254.08 69.9171L246.939 74.7238L245.546 72.6528ZM249.236 72.2905L250.895 71.1737L252.574 73.6695L250.915 74.7863L249.236 72.2905ZM251.941 74.9638L250.849 72.8826L256.134 72.9704L257.617 75.1742L251.941 74.9638Z" fill="white"/>
<path d="M252.772 83.959L260.429 80.025L261.562 82.2311L258.573 83.7667L260.284 87.0972L263.272 85.5617L264.412 87.782L256.756 91.716L255.616 89.4957L258.476 88.0259L256.766 84.6954L253.905 86.1651L252.772 83.959Z" fill="white"/>
<path d="M259.114 97.2633L260.664 96.6145L260.941 96.3248L263.716 95.1631C264.208 94.9571 264.528 94.6439 264.676 94.2235C264.828 93.813 264.774 93.2977 264.514 92.6778C264.337 92.2547 264.094 91.8654 263.783 91.5098C263.486 91.1599 263.165 90.8896 262.819 90.699L264.082 89.1989C264.568 89.5042 265.023 89.9268 265.445 90.4669C265.868 91.0069 266.211 91.5918 266.474 92.2216C266.981 93.4319 267.089 94.4911 266.798 95.3991C266.507 96.3071 265.757 97.0145 264.547 97.5212L260.016 99.4183L259.114 97.2633ZM257.983 94.8921C257.724 94.2722 257.605 93.6976 257.626 93.1683C257.657 92.6349 257.805 92.1739 258.07 91.7853C258.336 91.3967 258.695 91.1077 259.147 90.9182C259.619 90.7204 260.08 90.6606 260.529 90.7386C260.982 90.8264 261.412 91.0801 261.819 91.4995C262.235 91.9149 262.612 92.526 262.95 93.3328L263.833 95.4435L262.49 96.0058L261.712 94.1461C261.486 93.6049 261.241 93.268 260.977 93.1355C260.717 93.0129 260.455 93.0072 260.189 93.1184C259.894 93.242 259.705 93.454 259.623 93.7545C259.554 94.0607 259.605 94.4155 259.773 94.8189C259.934 95.2027 260.167 95.51 260.471 95.7409C260.786 95.9677 261.149 96.0758 261.561 96.0652L260.647 96.8644C260.065 96.9113 259.549 96.769 259.098 96.4374C258.647 96.1059 258.275 95.5908 257.983 94.8921Z" fill="white"/>
<path d="M260.686 100.956L268.883 98.329L269.678 100.813L265.062 105.703L264.745 104.712L271.411 106.222L272.123 108.447L263.936 111.104L263.248 108.956L269.007 107.11L268.881 107.554L263.254 106.249L262.932 105.243L266.915 100.841L267.164 101.249L261.374 103.104L260.686 100.956Z" fill="white"/>
<path d="M268.34 113.032L275.329 110.825L276.03 113.717L268.808 114.96L268.34 113.032ZM264.671 114.943C264.566 114.507 264.619 114.116 264.831 113.768C265.043 113.42 265.34 113.2 265.724 113.107C266.118 113.011 266.478 113.072 266.805 113.289C267.143 113.503 267.364 113.828 267.47 114.263C267.578 114.709 267.53 115.1 267.326 115.435C267.135 115.777 266.842 115.996 266.448 116.092C266.065 116.185 265.699 116.126 265.351 115.914C265.006 115.712 264.779 115.389 264.671 114.943Z" fill="white"/>
<path d="M269.544 127.302C269.499 126.942 269.542 126.598 269.674 126.27C269.817 125.951 270.026 125.684 270.3 125.467C270.584 125.249 270.923 125.116 271.314 125.067C271.706 125.019 272.061 125.066 272.38 125.209C272.698 125.352 272.961 125.562 273.167 125.837C273.385 126.122 273.516 126.444 273.561 126.804C273.605 127.164 273.556 127.503 273.413 127.822C273.282 128.15 273.079 128.422 272.805 128.639C272.531 128.856 272.198 128.988 271.806 129.037C271.414 129.085 271.054 129.039 270.725 128.897C270.406 128.754 270.138 128.54 269.92 128.255C269.713 127.98 269.588 127.662 269.544 127.302Z" fill="white"/>
<path d="M183.834 112L136.78 159.054L118.892 141.167L113 147.059L136.78 170.838L189.726 117.892L183.834 112Z" fill="white"/>
</svg>
