<svg width="160" height="92" viewBox="0 0 160 92" fill="none" xmlns="http://www.w3.org/2000/svg">
<path d="M10.4609 68.538L7.42788 54.8705L10.0442 54.2897L18.003 62.6435L16.6167 62.9512L20.197 52.0359L22.8134 51.4551L25.8659 65.1183L22.8981 65.7771L20.8551 56.6633L21.4214 56.5376L18.5359 65.2295L17.1301 65.5415L10.7413 58.9084L11.4052 58.7611L13.4286 67.8792L10.4609 68.538ZM36.83 62.9303C35.7497 63.1701 34.7084 63.2169 33.7062 63.0706C32.7171 62.9214 31.8133 62.603 30.9949 62.1154C30.1895 61.625 29.5028 60.9921 28.9347 60.2168C28.3796 59.4386 27.9894 58.5419 27.7641 57.5266C27.5387 56.5113 27.513 55.5336 27.6868 54.5936C27.8737 53.6507 28.2347 52.7852 28.77 51.9971C29.3054 51.2091 29.9896 50.5382 30.8228 49.9845C31.6559 49.4308 32.6062 49.0354 33.6735 48.7985C34.7539 48.5587 35.7822 48.5148 36.7583 48.6669C37.7474 48.816 38.6447 49.1359 39.4501 49.6263C40.2685 50.1139 40.9617 50.7453 41.5298 51.5206C42.0951 52.2829 42.4918 53.1782 42.72 54.2065C42.9453 55.2218 42.966 56.2074 42.782 57.1634C42.5952 58.1063 42.2341 58.9717 41.6988 59.7598C41.1736 60.532 40.4944 61.1949 39.6613 61.7486C38.8411 62.2995 37.8974 62.6933 36.83 62.9303ZM36.2126 60.2402C36.8243 60.1043 37.3609 59.876 37.8224 59.555C38.2968 59.2312 38.686 58.8306 38.9898 58.3535C39.2936 57.8763 39.4905 57.3477 39.5803 56.7678C39.6831 56.185 39.6624 55.5682 39.5179 54.9174C39.3735 54.2665 39.1314 53.6988 38.7917 53.2143C38.465 52.7268 38.0631 52.3312 37.586 52.0274C37.1218 51.7206 36.6063 51.521 36.0394 51.4283C35.4726 51.3356 34.8832 51.3571 34.2715 51.4929C33.6597 51.6287 33.1166 51.8586 32.6421 52.1824C32.1807 52.5034 31.7981 52.9024 31.4942 53.3796C31.1904 53.8568 30.9871 54.3868 30.8842 54.9696C30.7944 55.5495 30.8217 56.1649 30.9661 56.8157C31.1076 57.4536 31.3432 58.0227 31.6728 58.5232C32.0125 59.0077 32.4144 59.4034 32.8786 59.7101C33.3557 60.0139 33.8777 60.2121 34.4446 60.3048C35.0115 60.3975 35.6008 60.376 36.2126 60.2402ZM47.4523 60.5518C47.218 60.6038 46.9664 60.6392 46.6974 60.6579C46.4414 60.6738 46.1565 60.6824 45.8427 60.6837L45.4443 57.9655C45.6381 57.9771 45.8326 57.9612 46.0279 57.9179C46.5616 57.7994 46.9304 57.4922 47.1345 56.9962C47.3357 56.4871 47.4103 55.8081 47.3585 54.9592C47.3067 54.1103 47.1703 53.0957 46.9494 51.9155L45.9141 46.3271L56.4184 43.9953L59.4514 57.6628L56.3275 58.3563L53.7061 46.5436L54.5888 47.1057L48.5557 48.445L49.031 47.5404L49.7154 51.1786C49.9739 52.528 50.1471 53.7392 50.235 54.8123C50.3229 55.8855 50.2981 56.8197 50.1604 57.6151C50.0228 58.4105 49.7356 59.0547 49.2987 59.5478C48.8618 60.0409 48.2463 60.3755 47.4523 60.5518ZM70.4339 55.4707C69.3535 55.7105 68.3123 55.7572 67.3101 55.611C66.321 55.4618 65.4172 55.1434 64.5988 54.6558C63.7934 54.1654 63.1067 53.5325 62.5385 52.7572C61.9834 51.979 61.5932 51.0822 61.3679 50.0669C61.1426 49.0516 61.1169 48.074 61.2907 47.134C61.4775 46.1911 61.8386 45.3256 62.3739 44.5375C62.9092 43.7495 63.5935 43.0786 64.4266 42.5249C65.2598 41.9711 66.21 41.5758 67.2774 41.3389C68.3578 41.099 69.386 41.0552 70.3621 41.2072C71.3513 41.3564 72.2485 41.6763 73.0539 42.1667C73.8723 42.6543 74.5656 43.2857 75.1337 44.061C75.6989 44.8233 76.0956 45.7186 76.3238 46.7469C76.5492 47.7622 76.5698 48.7478 76.3859 49.7037C76.1991 50.6466 75.838 51.5121 75.3027 52.3002C74.7775 53.0724 74.0983 53.7353 73.2651 54.289C72.445 54.8398 71.5012 55.2337 70.4339 55.4707ZM69.8164 52.7805C70.4282 52.6447 70.9648 52.4164 71.4262 52.0954C71.9007 51.7715 72.2898 51.371 72.5937 50.8938C72.8975 50.4167 73.0943 49.8881 73.1842 49.3082C73.287 48.7254 73.2662 48.1086 73.1218 47.4577C72.9774 46.8069 72.7353 46.2392 72.3956 45.7546C72.0689 45.2672 71.667 44.8716 71.1898 44.5677C70.7257 44.261 70.2102 44.0613 69.6433 43.9686C69.0764 43.876 68.4871 43.8975 67.8753 44.0333C67.2636 44.1691 66.7204 44.399 66.246 44.7228C65.7846 45.0438 65.4019 45.4428 65.0981 45.92C64.7943 46.3972 64.5909 46.9272 64.4881 47.51C64.3982 48.0899 64.4255 48.7053 64.57 49.3561C64.7115 49.9939 64.9471 50.5631 65.2767 51.0636C65.6164 51.5481 66.0183 51.9438 66.4824 52.2505C66.9596 52.5543 67.4816 52.7525 68.0485 52.8452C68.6153 52.9379 69.2047 52.9163 69.8164 52.7805ZM89.6194 49.4908L87.4703 39.8064L82.7843 40.8466L83.1677 42.8512C83.3164 43.706 83.4355 44.5195 83.5249 45.2918C83.6274 46.0612 83.6763 46.7742 83.6718 47.4308C83.6644 48.0744 83.5912 48.6369 83.4522 49.1185C83.3263 49.5972 83.1143 49.9652 82.8163 50.2225L79.3432 50.5428C79.8147 50.4518 80.1626 50.2038 80.3868 49.799C80.6241 49.3912 80.766 48.8612 80.8125 48.2089C80.8561 47.5437 80.8245 46.7858 80.7177 45.9354C80.6239 45.0821 80.4883 44.163 80.3107 43.1781L79.518 38.8675L90.0223 36.5356L92.7433 48.7974L89.6194 49.4908ZM80.0943 56.0509L78.9137 50.6382L94.3968 47.2011L95.597 52.6095L92.6682 53.2597L92.04 50.4285L82.3948 52.5697L83.023 55.4008L80.0943 56.0509ZM96.608 49.4145L99.6667 34.3947L102.791 33.7012L111.935 46.0121L108.616 46.749L100.94 35.7921L102.189 35.5147L99.8491 48.695L96.608 49.4145ZM99.0039 45.8096L99.3106 43.2217L106.339 41.6613L107.731 43.8722L99.0039 45.8096Z" fill="white"/>
<path d="M27.5246 85.5916L24.5052 71.9211L34.1525 69.7895L34.7023 72.3717L27.4766 73.9682L28.0396 73.086L30.6687 84.8969L27.5246 85.5916ZM40.0773 82.8181L37.0579 69.1476L43.4244 67.741C45.0127 67.39 46.3171 67.4227 47.3376 67.839C48.3581 68.2553 48.9934 69.0298 49.2436 70.1625C49.4909 71.2822 49.2669 72.2466 48.5717 73.0556C47.8736 73.8516 46.8346 74.4021 45.4545 74.707L45.6444 73.8048C47.1807 73.4654 48.4395 73.5081 49.4209 73.9331C50.4024 74.358 51.021 75.1499 51.277 76.3086C51.5415 77.5064 51.2943 78.551 50.5354 79.4424C49.7866 80.3179 48.5464 80.9469 46.8148 81.3295L40.0773 82.8181ZM42.7039 79.7799L46.18 79.0119C46.9091 78.8508 47.4308 78.5853 47.7451 78.2155C48.0594 77.8456 48.1504 77.3612 48.0181 76.7623C47.8916 76.1895 47.6094 75.8081 47.1714 75.6181C46.7306 75.4151 46.1456 75.3941 45.4165 75.5552L41.9404 76.3232L42.7039 79.7799ZM41.453 74.1164L44.4018 73.4649C45.0919 73.3124 45.5824 73.0607 45.8736 72.7096C46.1618 72.3455 46.2456 71.89 46.1248 71.3432C46.004 70.7964 45.7377 70.4251 45.3258 70.2294C44.911 70.0206 44.3586 69.9924 43.6686 70.1449L40.7197 70.7964L41.453 74.1164ZM54.0624 79.7282L57.136 64.7114L60.2606 64.0211L69.3926 76.3411L66.0727 77.0746L58.4076 66.1101L59.6574 65.8339L57.3042 79.0119L54.0624 79.7282ZM56.4619 76.1257L56.7711 73.538L63.8015 71.9847L65.1913 74.197L56.4619 76.1257ZM72.1819 75.7248L69.1625 62.0543L75.0798 60.7469C76.3036 60.4765 77.4028 60.4453 78.3772 60.6533C79.3488 60.8482 80.1574 61.2636 80.803 61.8993C81.4487 62.5349 81.8851 63.3671 82.1122 64.3956C82.3365 65.4111 82.2898 66.3432 81.972 67.1917C81.6542 68.0403 81.0972 68.7641 80.301 69.3633C79.502 69.9495 78.4905 70.3778 77.2667 70.6482L73.107 71.5673L74.1983 69.831L75.3456 75.0258L72.1819 75.7248ZM74.2759 70.1825L72.5377 68.9894L76.5216 68.1092C77.498 67.8934 78.1811 67.524 78.5708 67.001C78.9605 66.4779 79.0734 65.8453 78.9095 65.1032C78.7427 64.3481 78.3724 63.8154 77.7987 63.5052C77.225 63.1951 76.4499 63.1478 75.4734 63.3636L71.4895 64.2438L72.5635 62.4294L74.2759 70.1825ZM95.1829 69.1681L93.0434 59.4816L88.3565 60.5171L88.7378 62.5221C88.8857 63.377 89.004 64.1906 89.0926 64.963C89.1943 65.7325 89.2426 66.4456 89.2374 67.1021C89.2293 67.7457 89.1556 68.3082 89.0161 68.7896C88.8897 69.2682 88.6774 69.636 88.3791 69.893L84.9057 70.2099C85.3773 70.1193 85.7254 69.8717 85.9501 69.4671C86.1878 69.0595 86.3302 68.5296 86.3773 67.8774C86.4215 67.2122 86.3907 66.4544 86.2848 65.6039C86.1919 64.7505 86.0571 63.8312 85.8805 62.8461L85.0921 58.5347L95.5987 56.2133L98.3075 68.4777L95.1829 69.1681ZM85.6514 75.7187L84.4761 70.3048L99.9626 66.8831L101.157 72.2927L98.228 72.94L97.6026 70.1082L87.9553 72.2397L88.5807 75.0715L85.6514 75.7187ZM103.638 68.7747L100.619 55.1042L103.763 54.4095L105.73 63.3149L110.286 52.9683L113.254 52.3125L116.273 65.983L113.149 66.6734L111.186 57.7875L106.626 68.1145L103.638 68.7747Z" fill="white"/>
<path d="M142.07 57.5166L139.987 46.6647L142.281 48.0062L132.853 49.8165C129.874 50.3885 127.21 50.3909 124.861 49.8236C122.512 49.2564 120.586 48.1499 119.082 46.5039C117.578 44.858 116.578 42.742 116.081 40.1559C115.566 37.4715 115.732 35.0637 116.579 32.9325C117.452 30.7622 118.904 28.956 120.935 27.5137C122.966 26.0715 125.488 25.0612 128.499 24.483L143.329 21.6355L149.926 56.008L142.07 57.5166ZM120.317 61.6934L126.495 47.7279L134.548 46.1816L128.714 60.0812L120.317 61.6934ZM139.497 44.1113L136.32 27.5634L138.68 29.2486L129.94 30.9269C127.681 31.3606 126.047 32.2175 125.037 33.4977C124.059 34.7715 123.769 36.4396 124.164 38.5019C124.548 40.4988 125.416 41.9274 126.769 42.7877C128.122 43.6479 129.912 43.8644 132.138 43.4369L141.074 41.7209L139.497 44.1113Z" fill="white"/>
</svg>
